G75*
G70*
%OFA0B0*%
%FSLAX24Y24*%
%IPPOS*%
%LPD*%
%AMOC8*
5,1,8,0,0,1.08239X$1,22.5*
%
%ADD10C,0.0000*%
%ADD11C,0.0050*%
%ADD12C,0.0040*%
%ADD13C,0.0060*%
%ADD14C,0.0100*%
%ADD15C,0.0160*%
%ADD16C,0.0030*%
%ADD17C,0.0070*%
%ADD18C,0.0020*%
%ADD19R,0.0300X0.0250*%
%ADD20R,0.0500X0.1100*%
D10*
X000100Y006458D02*
X000100Y045828D01*
X039470Y045828D01*
X039470Y006458D01*
X000100Y006458D01*
X006989Y017285D02*
X006991Y017333D01*
X006997Y017381D01*
X007007Y017428D01*
X007020Y017474D01*
X007038Y017519D01*
X007058Y017563D01*
X007083Y017605D01*
X007111Y017644D01*
X007141Y017681D01*
X007175Y017715D01*
X007212Y017747D01*
X007250Y017776D01*
X007291Y017801D01*
X007334Y017823D01*
X007379Y017841D01*
X007425Y017855D01*
X007472Y017866D01*
X007520Y017873D01*
X007568Y017876D01*
X007616Y017875D01*
X007664Y017870D01*
X007712Y017861D01*
X007758Y017849D01*
X007803Y017832D01*
X007847Y017812D01*
X007889Y017789D01*
X007929Y017762D01*
X007967Y017732D01*
X008002Y017699D01*
X008034Y017663D01*
X008064Y017625D01*
X008090Y017584D01*
X008112Y017541D01*
X008132Y017497D01*
X008147Y017452D01*
X008159Y017405D01*
X008167Y017357D01*
X008171Y017309D01*
X008171Y017261D01*
X008167Y017213D01*
X008159Y017165D01*
X008147Y017118D01*
X008132Y017073D01*
X008112Y017029D01*
X008090Y016986D01*
X008064Y016945D01*
X008034Y016907D01*
X008002Y016871D01*
X007967Y016838D01*
X007929Y016808D01*
X007889Y016781D01*
X007847Y016758D01*
X007803Y016738D01*
X007758Y016721D01*
X007712Y016709D01*
X007664Y016700D01*
X007616Y016695D01*
X007568Y016694D01*
X007520Y016697D01*
X007472Y016704D01*
X007425Y016715D01*
X007379Y016729D01*
X007334Y016747D01*
X007291Y016769D01*
X007250Y016794D01*
X007212Y016823D01*
X007175Y016855D01*
X007141Y016889D01*
X007111Y016926D01*
X007083Y016965D01*
X007058Y017007D01*
X007038Y017051D01*
X007020Y017096D01*
X007007Y017142D01*
X006997Y017189D01*
X006991Y017237D01*
X006989Y017285D01*
X009777Y017758D02*
X009779Y017806D01*
X009785Y017854D01*
X009795Y017901D01*
X009808Y017947D01*
X009826Y017992D01*
X009846Y018036D01*
X009871Y018078D01*
X009899Y018117D01*
X009929Y018154D01*
X009963Y018188D01*
X010000Y018220D01*
X010038Y018249D01*
X010079Y018274D01*
X010122Y018296D01*
X010167Y018314D01*
X010213Y018328D01*
X010260Y018339D01*
X010308Y018346D01*
X010356Y018349D01*
X010404Y018348D01*
X010452Y018343D01*
X010500Y018334D01*
X010546Y018322D01*
X010591Y018305D01*
X010635Y018285D01*
X010677Y018262D01*
X010717Y018235D01*
X010755Y018205D01*
X010790Y018172D01*
X010822Y018136D01*
X010852Y018098D01*
X010878Y018057D01*
X010900Y018014D01*
X010920Y017970D01*
X010935Y017925D01*
X010947Y017878D01*
X010955Y017830D01*
X010959Y017782D01*
X010959Y017734D01*
X010955Y017686D01*
X010947Y017638D01*
X010935Y017591D01*
X010920Y017546D01*
X010900Y017502D01*
X010878Y017459D01*
X010852Y017418D01*
X010822Y017380D01*
X010790Y017344D01*
X010755Y017311D01*
X010717Y017281D01*
X010677Y017254D01*
X010635Y017231D01*
X010591Y017211D01*
X010546Y017194D01*
X010500Y017182D01*
X010452Y017173D01*
X010404Y017168D01*
X010356Y017167D01*
X010308Y017170D01*
X010260Y017177D01*
X010213Y017188D01*
X010167Y017202D01*
X010122Y017220D01*
X010079Y017242D01*
X010038Y017267D01*
X010000Y017296D01*
X009963Y017328D01*
X009929Y017362D01*
X009899Y017399D01*
X009871Y017438D01*
X009846Y017480D01*
X009826Y017524D01*
X009808Y017569D01*
X009795Y017615D01*
X009785Y017662D01*
X009779Y017710D01*
X009777Y017758D01*
X003367Y022720D02*
X003369Y022770D01*
X003375Y022820D01*
X003385Y022870D01*
X003398Y022918D01*
X003415Y022966D01*
X003436Y023012D01*
X003460Y023056D01*
X003488Y023098D01*
X003519Y023138D01*
X003553Y023175D01*
X003590Y023210D01*
X003629Y023241D01*
X003670Y023270D01*
X003714Y023295D01*
X003760Y023317D01*
X003807Y023335D01*
X003855Y023349D01*
X003904Y023360D01*
X003954Y023367D01*
X004004Y023370D01*
X004055Y023369D01*
X004105Y023364D01*
X004155Y023355D01*
X004203Y023343D01*
X004251Y023326D01*
X004297Y023306D01*
X004342Y023283D01*
X004385Y023256D01*
X004425Y023226D01*
X004463Y023193D01*
X004498Y023157D01*
X004531Y023118D01*
X004560Y023077D01*
X004586Y023034D01*
X004609Y022989D01*
X004628Y022942D01*
X004643Y022894D01*
X004655Y022845D01*
X004663Y022795D01*
X004667Y022745D01*
X004667Y022695D01*
X004663Y022645D01*
X004655Y022595D01*
X004643Y022546D01*
X004628Y022498D01*
X004609Y022451D01*
X004586Y022406D01*
X004560Y022363D01*
X004531Y022322D01*
X004498Y022283D01*
X004463Y022247D01*
X004425Y022214D01*
X004385Y022184D01*
X004342Y022157D01*
X004297Y022134D01*
X004251Y022114D01*
X004203Y022097D01*
X004155Y022085D01*
X004105Y022076D01*
X004055Y022071D01*
X004004Y022070D01*
X003954Y022073D01*
X003904Y022080D01*
X003855Y022091D01*
X003807Y022105D01*
X003760Y022123D01*
X003714Y022145D01*
X003670Y022170D01*
X003629Y022199D01*
X003590Y022230D01*
X003553Y022265D01*
X003519Y022302D01*
X003488Y022342D01*
X003460Y022384D01*
X003436Y022428D01*
X003415Y022474D01*
X003398Y022522D01*
X003385Y022570D01*
X003375Y022620D01*
X003369Y022670D01*
X003367Y022720D01*
X002455Y035695D02*
X002457Y035743D01*
X002463Y035791D01*
X002473Y035838D01*
X002486Y035884D01*
X002504Y035929D01*
X002524Y035973D01*
X002549Y036015D01*
X002577Y036054D01*
X002607Y036091D01*
X002641Y036125D01*
X002678Y036157D01*
X002716Y036186D01*
X002757Y036211D01*
X002800Y036233D01*
X002845Y036251D01*
X002891Y036265D01*
X002938Y036276D01*
X002986Y036283D01*
X003034Y036286D01*
X003082Y036285D01*
X003130Y036280D01*
X003178Y036271D01*
X003224Y036259D01*
X003269Y036242D01*
X003313Y036222D01*
X003355Y036199D01*
X003395Y036172D01*
X003433Y036142D01*
X003468Y036109D01*
X003500Y036073D01*
X003530Y036035D01*
X003556Y035994D01*
X003578Y035951D01*
X003598Y035907D01*
X003613Y035862D01*
X003625Y035815D01*
X003633Y035767D01*
X003637Y035719D01*
X003637Y035671D01*
X003633Y035623D01*
X003625Y035575D01*
X003613Y035528D01*
X003598Y035483D01*
X003578Y035439D01*
X003556Y035396D01*
X003530Y035355D01*
X003500Y035317D01*
X003468Y035281D01*
X003433Y035248D01*
X003395Y035218D01*
X003355Y035191D01*
X003313Y035168D01*
X003269Y035148D01*
X003224Y035131D01*
X003178Y035119D01*
X003130Y035110D01*
X003082Y035105D01*
X003034Y035104D01*
X002986Y035107D01*
X002938Y035114D01*
X002891Y035125D01*
X002845Y035139D01*
X002800Y035157D01*
X002757Y035179D01*
X002716Y035204D01*
X002678Y035233D01*
X002641Y035265D01*
X002607Y035299D01*
X002577Y035336D01*
X002549Y035375D01*
X002524Y035417D01*
X002504Y035461D01*
X002486Y035506D01*
X002473Y035552D01*
X002463Y035599D01*
X002457Y035647D01*
X002455Y035695D01*
X002607Y040245D02*
X002609Y040297D01*
X002615Y040349D01*
X002625Y040400D01*
X002638Y040450D01*
X002656Y040500D01*
X002677Y040547D01*
X002701Y040593D01*
X002730Y040637D01*
X002761Y040679D01*
X002795Y040718D01*
X002832Y040755D01*
X002872Y040788D01*
X002915Y040819D01*
X002959Y040846D01*
X003005Y040870D01*
X003054Y040890D01*
X003103Y040906D01*
X003154Y040919D01*
X003205Y040928D01*
X003257Y040933D01*
X003309Y040934D01*
X003361Y040931D01*
X003413Y040924D01*
X003464Y040913D01*
X003514Y040899D01*
X003563Y040880D01*
X003610Y040858D01*
X003655Y040833D01*
X003699Y040804D01*
X003740Y040772D01*
X003779Y040737D01*
X003814Y040699D01*
X003847Y040658D01*
X003877Y040616D01*
X003903Y040571D01*
X003926Y040524D01*
X003945Y040475D01*
X003961Y040425D01*
X003973Y040375D01*
X003981Y040323D01*
X003985Y040271D01*
X003985Y040219D01*
X003981Y040167D01*
X003973Y040115D01*
X003961Y040065D01*
X003945Y040015D01*
X003926Y039966D01*
X003903Y039919D01*
X003877Y039874D01*
X003847Y039832D01*
X003814Y039791D01*
X003779Y039753D01*
X003740Y039718D01*
X003699Y039686D01*
X003655Y039657D01*
X003610Y039632D01*
X003563Y039610D01*
X003514Y039591D01*
X003464Y039577D01*
X003413Y039566D01*
X003361Y039559D01*
X003309Y039556D01*
X003257Y039557D01*
X003205Y039562D01*
X003154Y039571D01*
X003103Y039584D01*
X003054Y039600D01*
X003005Y039620D01*
X002959Y039644D01*
X002915Y039671D01*
X002872Y039702D01*
X002832Y039735D01*
X002795Y039772D01*
X002761Y039811D01*
X002730Y039853D01*
X002701Y039897D01*
X002677Y039943D01*
X002656Y039990D01*
X002638Y040040D01*
X002625Y040090D01*
X002615Y040141D01*
X002609Y040193D01*
X002607Y040245D01*
X002455Y042795D02*
X002457Y042843D01*
X002463Y042891D01*
X002473Y042938D01*
X002486Y042984D01*
X002504Y043029D01*
X002524Y043073D01*
X002549Y043115D01*
X002577Y043154D01*
X002607Y043191D01*
X002641Y043225D01*
X002678Y043257D01*
X002716Y043286D01*
X002757Y043311D01*
X002800Y043333D01*
X002845Y043351D01*
X002891Y043365D01*
X002938Y043376D01*
X002986Y043383D01*
X003034Y043386D01*
X003082Y043385D01*
X003130Y043380D01*
X003178Y043371D01*
X003224Y043359D01*
X003269Y043342D01*
X003313Y043322D01*
X003355Y043299D01*
X003395Y043272D01*
X003433Y043242D01*
X003468Y043209D01*
X003500Y043173D01*
X003530Y043135D01*
X003556Y043094D01*
X003578Y043051D01*
X003598Y043007D01*
X003613Y042962D01*
X003625Y042915D01*
X003633Y042867D01*
X003637Y042819D01*
X003637Y042771D01*
X003633Y042723D01*
X003625Y042675D01*
X003613Y042628D01*
X003598Y042583D01*
X003578Y042539D01*
X003556Y042496D01*
X003530Y042455D01*
X003500Y042417D01*
X003468Y042381D01*
X003433Y042348D01*
X003395Y042318D01*
X003355Y042291D01*
X003313Y042268D01*
X003269Y042248D01*
X003224Y042231D01*
X003178Y042219D01*
X003130Y042210D01*
X003082Y042205D01*
X003034Y042204D01*
X002986Y042207D01*
X002938Y042214D01*
X002891Y042225D01*
X002845Y042239D01*
X002800Y042257D01*
X002757Y042279D01*
X002716Y042304D01*
X002678Y042333D01*
X002641Y042365D01*
X002607Y042399D01*
X002577Y042436D01*
X002549Y042475D01*
X002524Y042517D01*
X002504Y042561D01*
X002486Y042606D01*
X002473Y042652D01*
X002463Y042699D01*
X002457Y042747D01*
X002455Y042795D01*
X014255Y042795D02*
X014257Y042843D01*
X014263Y042891D01*
X014273Y042938D01*
X014286Y042984D01*
X014304Y043029D01*
X014324Y043073D01*
X014349Y043115D01*
X014377Y043154D01*
X014407Y043191D01*
X014441Y043225D01*
X014478Y043257D01*
X014516Y043286D01*
X014557Y043311D01*
X014600Y043333D01*
X014645Y043351D01*
X014691Y043365D01*
X014738Y043376D01*
X014786Y043383D01*
X014834Y043386D01*
X014882Y043385D01*
X014930Y043380D01*
X014978Y043371D01*
X015024Y043359D01*
X015069Y043342D01*
X015113Y043322D01*
X015155Y043299D01*
X015195Y043272D01*
X015233Y043242D01*
X015268Y043209D01*
X015300Y043173D01*
X015330Y043135D01*
X015356Y043094D01*
X015378Y043051D01*
X015398Y043007D01*
X015413Y042962D01*
X015425Y042915D01*
X015433Y042867D01*
X015437Y042819D01*
X015437Y042771D01*
X015433Y042723D01*
X015425Y042675D01*
X015413Y042628D01*
X015398Y042583D01*
X015378Y042539D01*
X015356Y042496D01*
X015330Y042455D01*
X015300Y042417D01*
X015268Y042381D01*
X015233Y042348D01*
X015195Y042318D01*
X015155Y042291D01*
X015113Y042268D01*
X015069Y042248D01*
X015024Y042231D01*
X014978Y042219D01*
X014930Y042210D01*
X014882Y042205D01*
X014834Y042204D01*
X014786Y042207D01*
X014738Y042214D01*
X014691Y042225D01*
X014645Y042239D01*
X014600Y042257D01*
X014557Y042279D01*
X014516Y042304D01*
X014478Y042333D01*
X014441Y042365D01*
X014407Y042399D01*
X014377Y042436D01*
X014349Y042475D01*
X014324Y042517D01*
X014304Y042561D01*
X014286Y042606D01*
X014273Y042652D01*
X014263Y042699D01*
X014257Y042747D01*
X014255Y042795D01*
X014255Y035695D02*
X014257Y035743D01*
X014263Y035791D01*
X014273Y035838D01*
X014286Y035884D01*
X014304Y035929D01*
X014324Y035973D01*
X014349Y036015D01*
X014377Y036054D01*
X014407Y036091D01*
X014441Y036125D01*
X014478Y036157D01*
X014516Y036186D01*
X014557Y036211D01*
X014600Y036233D01*
X014645Y036251D01*
X014691Y036265D01*
X014738Y036276D01*
X014786Y036283D01*
X014834Y036286D01*
X014882Y036285D01*
X014930Y036280D01*
X014978Y036271D01*
X015024Y036259D01*
X015069Y036242D01*
X015113Y036222D01*
X015155Y036199D01*
X015195Y036172D01*
X015233Y036142D01*
X015268Y036109D01*
X015300Y036073D01*
X015330Y036035D01*
X015356Y035994D01*
X015378Y035951D01*
X015398Y035907D01*
X015413Y035862D01*
X015425Y035815D01*
X015433Y035767D01*
X015437Y035719D01*
X015437Y035671D01*
X015433Y035623D01*
X015425Y035575D01*
X015413Y035528D01*
X015398Y035483D01*
X015378Y035439D01*
X015356Y035396D01*
X015330Y035355D01*
X015300Y035317D01*
X015268Y035281D01*
X015233Y035248D01*
X015195Y035218D01*
X015155Y035191D01*
X015113Y035168D01*
X015069Y035148D01*
X015024Y035131D01*
X014978Y035119D01*
X014930Y035110D01*
X014882Y035105D01*
X014834Y035104D01*
X014786Y035107D01*
X014738Y035114D01*
X014691Y035125D01*
X014645Y035139D01*
X014600Y035157D01*
X014557Y035179D01*
X014516Y035204D01*
X014478Y035233D01*
X014441Y035265D01*
X014407Y035299D01*
X014377Y035336D01*
X014349Y035375D01*
X014324Y035417D01*
X014304Y035461D01*
X014286Y035506D01*
X014273Y035552D01*
X014263Y035599D01*
X014257Y035647D01*
X014255Y035695D01*
X016832Y035395D02*
X016834Y035443D01*
X016840Y035491D01*
X016850Y035538D01*
X016863Y035584D01*
X016881Y035629D01*
X016901Y035673D01*
X016926Y035715D01*
X016954Y035754D01*
X016984Y035791D01*
X017018Y035825D01*
X017055Y035857D01*
X017093Y035886D01*
X017134Y035911D01*
X017177Y035933D01*
X017222Y035951D01*
X017268Y035965D01*
X017315Y035976D01*
X017363Y035983D01*
X017411Y035986D01*
X017459Y035985D01*
X017507Y035980D01*
X017555Y035971D01*
X017601Y035959D01*
X017646Y035942D01*
X017690Y035922D01*
X017732Y035899D01*
X017772Y035872D01*
X017810Y035842D01*
X017845Y035809D01*
X017877Y035773D01*
X017907Y035735D01*
X017933Y035694D01*
X017955Y035651D01*
X017975Y035607D01*
X017990Y035562D01*
X018002Y035515D01*
X018010Y035467D01*
X018014Y035419D01*
X018014Y035371D01*
X018010Y035323D01*
X018002Y035275D01*
X017990Y035228D01*
X017975Y035183D01*
X017955Y035139D01*
X017933Y035096D01*
X017907Y035055D01*
X017877Y035017D01*
X017845Y034981D01*
X017810Y034948D01*
X017772Y034918D01*
X017732Y034891D01*
X017690Y034868D01*
X017646Y034848D01*
X017601Y034831D01*
X017555Y034819D01*
X017507Y034810D01*
X017459Y034805D01*
X017411Y034804D01*
X017363Y034807D01*
X017315Y034814D01*
X017268Y034825D01*
X017222Y034839D01*
X017177Y034857D01*
X017134Y034879D01*
X017093Y034904D01*
X017055Y034933D01*
X017018Y034965D01*
X016984Y034999D01*
X016954Y035036D01*
X016926Y035075D01*
X016901Y035117D01*
X016881Y035161D01*
X016863Y035206D01*
X016850Y035252D01*
X016840Y035299D01*
X016834Y035347D01*
X016832Y035395D01*
X015777Y029458D02*
X015779Y029506D01*
X015785Y029554D01*
X015795Y029601D01*
X015808Y029647D01*
X015826Y029692D01*
X015846Y029736D01*
X015871Y029778D01*
X015899Y029817D01*
X015929Y029854D01*
X015963Y029888D01*
X016000Y029920D01*
X016038Y029949D01*
X016079Y029974D01*
X016122Y029996D01*
X016167Y030014D01*
X016213Y030028D01*
X016260Y030039D01*
X016308Y030046D01*
X016356Y030049D01*
X016404Y030048D01*
X016452Y030043D01*
X016500Y030034D01*
X016546Y030022D01*
X016591Y030005D01*
X016635Y029985D01*
X016677Y029962D01*
X016717Y029935D01*
X016755Y029905D01*
X016790Y029872D01*
X016822Y029836D01*
X016852Y029798D01*
X016878Y029757D01*
X016900Y029714D01*
X016920Y029670D01*
X016935Y029625D01*
X016947Y029578D01*
X016955Y029530D01*
X016959Y029482D01*
X016959Y029434D01*
X016955Y029386D01*
X016947Y029338D01*
X016935Y029291D01*
X016920Y029246D01*
X016900Y029202D01*
X016878Y029159D01*
X016852Y029118D01*
X016822Y029080D01*
X016790Y029044D01*
X016755Y029011D01*
X016717Y028981D01*
X016677Y028954D01*
X016635Y028931D01*
X016591Y028911D01*
X016546Y028894D01*
X016500Y028882D01*
X016452Y028873D01*
X016404Y028868D01*
X016356Y028867D01*
X016308Y028870D01*
X016260Y028877D01*
X016213Y028888D01*
X016167Y028902D01*
X016122Y028920D01*
X016079Y028942D01*
X016038Y028967D01*
X016000Y028996D01*
X015963Y029028D01*
X015929Y029062D01*
X015899Y029099D01*
X015871Y029138D01*
X015846Y029180D01*
X015826Y029224D01*
X015808Y029269D01*
X015795Y029315D01*
X015785Y029362D01*
X015779Y029410D01*
X015777Y029458D01*
X035926Y041300D02*
X035928Y041348D01*
X035934Y041396D01*
X035944Y041443D01*
X035957Y041489D01*
X035975Y041534D01*
X035995Y041578D01*
X036020Y041620D01*
X036048Y041659D01*
X036078Y041696D01*
X036112Y041730D01*
X036149Y041762D01*
X036187Y041791D01*
X036228Y041816D01*
X036271Y041838D01*
X036316Y041856D01*
X036362Y041870D01*
X036409Y041881D01*
X036457Y041888D01*
X036505Y041891D01*
X036553Y041890D01*
X036601Y041885D01*
X036649Y041876D01*
X036695Y041864D01*
X036740Y041847D01*
X036784Y041827D01*
X036826Y041804D01*
X036866Y041777D01*
X036904Y041747D01*
X036939Y041714D01*
X036971Y041678D01*
X037001Y041640D01*
X037027Y041599D01*
X037049Y041556D01*
X037069Y041512D01*
X037084Y041467D01*
X037096Y041420D01*
X037104Y041372D01*
X037108Y041324D01*
X037108Y041276D01*
X037104Y041228D01*
X037096Y041180D01*
X037084Y041133D01*
X037069Y041088D01*
X037049Y041044D01*
X037027Y041001D01*
X037001Y040960D01*
X036971Y040922D01*
X036939Y040886D01*
X036904Y040853D01*
X036866Y040823D01*
X036826Y040796D01*
X036784Y040773D01*
X036740Y040753D01*
X036695Y040736D01*
X036649Y040724D01*
X036601Y040715D01*
X036553Y040710D01*
X036505Y040709D01*
X036457Y040712D01*
X036409Y040719D01*
X036362Y040730D01*
X036316Y040744D01*
X036271Y040762D01*
X036228Y040784D01*
X036187Y040809D01*
X036149Y040838D01*
X036112Y040870D01*
X036078Y040904D01*
X036048Y040941D01*
X036020Y040980D01*
X035995Y041022D01*
X035975Y041066D01*
X035957Y041111D01*
X035944Y041157D01*
X035934Y041204D01*
X035928Y041252D01*
X035926Y041300D01*
X036123Y016497D02*
X036125Y016545D01*
X036131Y016593D01*
X036141Y016640D01*
X036154Y016686D01*
X036172Y016731D01*
X036192Y016775D01*
X036217Y016817D01*
X036245Y016856D01*
X036275Y016893D01*
X036309Y016927D01*
X036346Y016959D01*
X036384Y016988D01*
X036425Y017013D01*
X036468Y017035D01*
X036513Y017053D01*
X036559Y017067D01*
X036606Y017078D01*
X036654Y017085D01*
X036702Y017088D01*
X036750Y017087D01*
X036798Y017082D01*
X036846Y017073D01*
X036892Y017061D01*
X036937Y017044D01*
X036981Y017024D01*
X037023Y017001D01*
X037063Y016974D01*
X037101Y016944D01*
X037136Y016911D01*
X037168Y016875D01*
X037198Y016837D01*
X037224Y016796D01*
X037246Y016753D01*
X037266Y016709D01*
X037281Y016664D01*
X037293Y016617D01*
X037301Y016569D01*
X037305Y016521D01*
X037305Y016473D01*
X037301Y016425D01*
X037293Y016377D01*
X037281Y016330D01*
X037266Y016285D01*
X037246Y016241D01*
X037224Y016198D01*
X037198Y016157D01*
X037168Y016119D01*
X037136Y016083D01*
X037101Y016050D01*
X037063Y016020D01*
X037023Y015993D01*
X036981Y015970D01*
X036937Y015950D01*
X036892Y015933D01*
X036846Y015921D01*
X036798Y015912D01*
X036750Y015907D01*
X036702Y015906D01*
X036654Y015909D01*
X036606Y015916D01*
X036559Y015927D01*
X036513Y015941D01*
X036468Y015959D01*
X036425Y015981D01*
X036384Y016006D01*
X036346Y016035D01*
X036309Y016067D01*
X036275Y016101D01*
X036245Y016138D01*
X036217Y016177D01*
X036192Y016219D01*
X036172Y016263D01*
X036154Y016308D01*
X036141Y016354D01*
X036131Y016401D01*
X036125Y016449D01*
X036123Y016497D01*
D11*
X037490Y010064D02*
X029490Y010064D01*
X029490Y008064D01*
X037490Y008064D01*
X037490Y010064D01*
X028368Y010064D02*
X028368Y008064D01*
X025368Y008064D01*
X025368Y010064D01*
X028368Y010064D01*
X022746Y010166D02*
X022746Y008166D01*
X019746Y008166D01*
X019746Y010166D01*
X022746Y010166D01*
X018958Y010064D02*
X018958Y008064D01*
X010958Y008064D01*
X010958Y010064D01*
X018958Y010064D01*
X017468Y014958D02*
X009268Y014958D01*
X009268Y031958D01*
X017468Y031958D01*
X017468Y014958D01*
X020291Y016526D02*
X020291Y016751D01*
X020366Y016826D01*
X020516Y016826D01*
X020591Y016751D01*
X020591Y016526D01*
X020591Y016676D02*
X020742Y016826D01*
X020742Y016986D02*
X020441Y017287D01*
X020366Y017287D01*
X020291Y017212D01*
X020291Y017062D01*
X020366Y016986D01*
X020742Y016986D02*
X020742Y017287D01*
X020742Y016526D02*
X020291Y016526D01*
X024005Y017566D02*
X024005Y017791D01*
X024080Y017866D01*
X024231Y017866D01*
X024306Y017791D01*
X024306Y017566D01*
X024456Y017566D02*
X024005Y017566D01*
X024306Y017716D02*
X024456Y017866D01*
X024381Y018026D02*
X024456Y018101D01*
X024456Y018251D01*
X024381Y018327D01*
X024306Y018327D01*
X024231Y018251D01*
X024231Y018176D01*
X024231Y018251D02*
X024155Y018327D01*
X024080Y018327D01*
X024005Y018251D01*
X024005Y018101D01*
X024080Y018026D01*
X010490Y010166D02*
X010490Y008166D01*
X007490Y008166D01*
X007490Y010166D01*
X010490Y010166D01*
X006655Y011348D02*
X006655Y008355D01*
X002246Y008355D01*
X002246Y011348D01*
X006655Y011348D01*
X005099Y013110D02*
X004798Y013110D01*
X004949Y013110D02*
X004949Y013560D01*
X004798Y013410D01*
X004638Y013335D02*
X004563Y013260D01*
X004338Y013260D01*
X004338Y013110D02*
X004338Y013560D01*
X004563Y013560D01*
X004638Y013485D01*
X004638Y013335D01*
X004488Y013260D02*
X004638Y013110D01*
X001820Y025655D02*
X001820Y033905D01*
X008070Y033905D01*
X008070Y025655D01*
X001820Y025655D01*
X005070Y027405D02*
X005320Y027655D01*
X005570Y027405D01*
X005320Y027655D02*
X005320Y026155D01*
X006820Y026155D01*
X006570Y025905D01*
X006820Y026155D02*
X006570Y026405D01*
X001846Y034495D02*
X001846Y043995D01*
X016046Y043995D01*
X016046Y034495D01*
X001846Y034495D01*
X003167Y037995D02*
X003169Y038013D01*
X003175Y038029D01*
X003184Y038044D01*
X003197Y038057D01*
X003212Y038066D01*
X003228Y038072D01*
X003246Y038074D01*
X003264Y038072D01*
X003280Y038066D01*
X003295Y038057D01*
X003308Y038044D01*
X003317Y038029D01*
X003323Y038013D01*
X003325Y037995D01*
X003323Y037977D01*
X003317Y037961D01*
X003308Y037946D01*
X003295Y037933D01*
X003280Y037924D01*
X003264Y037918D01*
X003246Y037916D01*
X003228Y037918D01*
X003212Y037924D01*
X003197Y037933D01*
X003184Y037946D01*
X003175Y037961D01*
X003169Y037977D01*
X003167Y037995D01*
X002852Y037995D02*
X002854Y038034D01*
X002860Y038073D01*
X002870Y038111D01*
X002883Y038148D01*
X002900Y038183D01*
X002920Y038217D01*
X002944Y038248D01*
X002971Y038277D01*
X003000Y038303D01*
X003032Y038326D01*
X003066Y038346D01*
X003102Y038362D01*
X003139Y038374D01*
X003178Y038383D01*
X003217Y038388D01*
X003256Y038389D01*
X003295Y038386D01*
X003334Y038379D01*
X003371Y038368D01*
X003408Y038354D01*
X003443Y038336D01*
X003476Y038315D01*
X003507Y038290D01*
X003535Y038263D01*
X003560Y038233D01*
X003582Y038200D01*
X003601Y038166D01*
X003616Y038130D01*
X003628Y038092D01*
X003636Y038054D01*
X003640Y038015D01*
X003640Y037975D01*
X003636Y037936D01*
X003628Y037898D01*
X003616Y037860D01*
X003601Y037824D01*
X003582Y037790D01*
X003560Y037757D01*
X003535Y037727D01*
X003507Y037700D01*
X003476Y037675D01*
X003443Y037654D01*
X003408Y037636D01*
X003371Y037622D01*
X003334Y037611D01*
X003295Y037604D01*
X003256Y037601D01*
X003217Y037602D01*
X003178Y037607D01*
X003139Y037616D01*
X003102Y037628D01*
X003066Y037644D01*
X003032Y037664D01*
X003000Y037687D01*
X002971Y037713D01*
X002944Y037742D01*
X002920Y037773D01*
X002900Y037807D01*
X002883Y037842D01*
X002870Y037879D01*
X002860Y037917D01*
X002854Y037956D01*
X002852Y037995D01*
X014696Y037995D02*
X014696Y038495D01*
X014946Y038745D01*
X014696Y038995D01*
X014696Y039495D01*
X014946Y039745D01*
X014696Y039995D01*
X014696Y040495D01*
X014946Y040745D01*
X014696Y040995D01*
X014696Y041495D01*
X014946Y041745D01*
X015446Y041745D01*
X015696Y041495D01*
X015696Y040995D01*
X015446Y040745D01*
X015696Y040495D01*
X015696Y039995D01*
X015446Y039745D01*
X015696Y039495D01*
X015696Y038995D01*
X015446Y038745D01*
X015696Y038495D01*
X015696Y037995D01*
X015446Y037745D01*
X015696Y037495D01*
X015696Y036995D01*
X015446Y036745D01*
X014946Y036745D01*
X014696Y036995D01*
X014696Y037495D01*
X014946Y037745D01*
X014696Y037995D01*
D12*
X002117Y005847D02*
X001811Y005847D01*
X001734Y005923D01*
X001734Y006077D01*
X001811Y006154D01*
X001887Y006307D02*
X001734Y006461D01*
X001887Y006614D01*
X002194Y006614D01*
X002194Y006768D02*
X001734Y006768D01*
X001887Y006921D01*
X001734Y007074D01*
X002194Y007074D01*
X002194Y007228D02*
X002194Y007535D01*
X002194Y007688D02*
X001734Y007688D01*
X001734Y007918D01*
X001811Y007995D01*
X001964Y007995D01*
X002041Y007918D01*
X002041Y007688D01*
X002041Y007842D02*
X002194Y007995D01*
X002194Y008149D02*
X001887Y008149D01*
X001734Y008302D01*
X001887Y008456D01*
X002194Y008456D01*
X002271Y008609D02*
X002271Y008916D01*
X002194Y009069D02*
X001734Y009069D01*
X001734Y009300D01*
X001811Y009376D01*
X001964Y009376D01*
X002041Y009300D01*
X002041Y009069D01*
X002117Y009530D02*
X001811Y009530D01*
X001734Y009607D01*
X001734Y009760D01*
X001811Y009837D01*
X002117Y009837D01*
X002194Y009760D01*
X002194Y009607D01*
X002117Y009530D01*
X002194Y009990D02*
X001734Y009990D01*
X001734Y010297D02*
X002194Y010297D01*
X002041Y010144D01*
X002194Y009990D01*
X002194Y010451D02*
X001734Y010451D01*
X001734Y010758D01*
X001734Y010911D02*
X001734Y011141D01*
X001811Y011218D01*
X001964Y011218D01*
X002041Y011141D01*
X002041Y010911D01*
X002194Y010911D02*
X001734Y010911D01*
X002041Y011065D02*
X002194Y011218D01*
X002194Y010758D02*
X002194Y010451D01*
X001964Y010451D02*
X001964Y010604D01*
X001964Y008456D02*
X001964Y008149D01*
X001734Y007535D02*
X001734Y007228D01*
X002194Y007228D01*
X001964Y007228D02*
X001964Y007381D01*
X001964Y006614D02*
X001964Y006307D01*
X001887Y006307D02*
X002194Y006307D01*
X002117Y006154D02*
X002194Y006077D01*
X002194Y005923D01*
X002117Y005847D01*
X007009Y005889D02*
X007470Y005889D01*
X007316Y005736D01*
X007470Y005582D01*
X007009Y005582D01*
X007086Y005429D02*
X007009Y005352D01*
X007009Y005199D01*
X007086Y005122D01*
X007393Y005122D01*
X007470Y005199D01*
X007470Y005352D01*
X007393Y005429D01*
X007086Y005429D01*
X007086Y004969D02*
X007240Y004969D01*
X007316Y004892D01*
X007316Y004662D01*
X007470Y004662D02*
X007009Y004662D01*
X007009Y004892D01*
X007086Y004969D01*
X007546Y004508D02*
X007546Y004201D01*
X007470Y004048D02*
X007009Y004048D01*
X007009Y003741D02*
X007470Y004048D01*
X007470Y003741D02*
X007009Y003741D01*
X007086Y003587D02*
X007163Y003587D01*
X007240Y003511D01*
X007240Y003357D01*
X007163Y003280D01*
X007086Y003280D01*
X007009Y003357D01*
X007009Y003511D01*
X007086Y003587D01*
X007240Y003511D02*
X007316Y003587D01*
X007393Y003587D01*
X007470Y003511D01*
X007470Y003357D01*
X007393Y003280D01*
X007316Y003280D01*
X007240Y003357D01*
X007240Y003127D02*
X007240Y002897D01*
X007163Y002820D01*
X007086Y002820D01*
X007009Y002897D01*
X007009Y003050D01*
X007086Y003127D01*
X007393Y003127D01*
X007470Y003050D01*
X007470Y002897D01*
X007393Y002820D01*
X007470Y002667D02*
X007470Y002360D01*
X007163Y002667D01*
X007086Y002667D01*
X007009Y002590D01*
X007009Y002436D01*
X007086Y002360D01*
X007470Y002206D02*
X007470Y001899D01*
X007009Y001899D01*
X009978Y001874D02*
X010055Y001797D01*
X010131Y001797D01*
X010208Y001874D01*
X010208Y002104D01*
X010055Y002104D02*
X009978Y002027D01*
X009978Y001874D01*
X010055Y002104D02*
X010362Y002104D01*
X010438Y002027D01*
X010438Y001874D01*
X010362Y001797D01*
X010438Y001643D02*
X010438Y001337D01*
X010131Y001643D01*
X010055Y001643D01*
X009978Y001567D01*
X009978Y001413D01*
X010055Y001337D01*
X010438Y001183D02*
X010438Y000876D01*
X009978Y000876D01*
X010055Y002257D02*
X010131Y002257D01*
X010208Y002334D01*
X010208Y002488D01*
X010285Y002564D01*
X010362Y002564D01*
X010438Y002488D01*
X010438Y002334D01*
X010362Y002257D01*
X010285Y002257D01*
X010208Y002334D01*
X010208Y002488D02*
X010131Y002564D01*
X010055Y002564D01*
X009978Y002488D01*
X009978Y002334D01*
X010055Y002257D01*
X009978Y002718D02*
X010438Y003025D01*
X009978Y003025D01*
X009978Y002718D02*
X010438Y002718D01*
X010515Y003178D02*
X010515Y003485D01*
X010362Y003639D02*
X010438Y003715D01*
X010438Y003869D01*
X010362Y003945D01*
X010362Y004099D02*
X010438Y004176D01*
X010438Y004329D01*
X010362Y004406D01*
X010055Y004406D01*
X009978Y004329D01*
X009978Y004176D01*
X010055Y004099D01*
X010362Y004099D01*
X010055Y003945D02*
X009978Y003869D01*
X009978Y003715D01*
X010055Y003639D01*
X010362Y003639D01*
X010438Y004559D02*
X009978Y004559D01*
X010438Y004866D01*
X009978Y004866D01*
X009978Y005020D02*
X009978Y005327D01*
X009978Y005480D02*
X009978Y005710D01*
X010055Y005787D01*
X010208Y005787D01*
X010285Y005710D01*
X010285Y005480D01*
X010438Y005480D02*
X009978Y005480D01*
X009978Y005173D02*
X010438Y005173D01*
X010285Y005634D02*
X010438Y005787D01*
X010362Y005940D02*
X010438Y006017D01*
X010438Y006171D01*
X010362Y006247D01*
X010055Y006247D01*
X009978Y006171D01*
X009978Y006017D01*
X010055Y005940D01*
X010362Y005940D01*
X010438Y006401D02*
X009978Y006401D01*
X010438Y006401D02*
X010438Y006708D01*
X010515Y006861D02*
X010515Y007168D01*
X010438Y007322D02*
X009978Y007322D01*
X010208Y007398D02*
X010438Y007629D01*
X010438Y007782D02*
X010438Y008089D01*
X010438Y008242D02*
X010438Y008549D01*
X010438Y008703D02*
X009978Y008703D01*
X010131Y008856D01*
X009978Y009010D01*
X010438Y009010D01*
X010438Y009163D02*
X009978Y009163D01*
X010131Y009317D01*
X009978Y009470D01*
X010438Y009470D01*
X010438Y009624D02*
X010438Y009931D01*
X010208Y009777D02*
X010208Y009624D01*
X009978Y009624D02*
X010438Y009624D01*
X009978Y009624D02*
X009978Y009931D01*
X009978Y008549D02*
X009978Y008242D01*
X010438Y008242D01*
X010208Y008242D02*
X010208Y008396D01*
X009978Y007782D02*
X010438Y007782D01*
X010285Y007322D02*
X009978Y007629D01*
X007546Y007271D02*
X007546Y006964D01*
X007470Y006810D02*
X007316Y006657D01*
X007316Y006733D02*
X007316Y006503D01*
X007470Y006503D02*
X007009Y006503D01*
X007009Y006733D01*
X007086Y006810D01*
X007240Y006810D01*
X007316Y006733D01*
X007470Y006350D02*
X007470Y006043D01*
X007009Y006043D01*
X007009Y006350D01*
X007240Y006196D02*
X007240Y006043D01*
X007316Y007424D02*
X007009Y007731D01*
X007009Y007884D02*
X007470Y007884D01*
X007470Y008191D01*
X007470Y008345D02*
X007009Y008345D01*
X007009Y008652D01*
X007009Y008805D02*
X007163Y008959D01*
X007009Y009112D01*
X007470Y009112D01*
X007470Y009266D02*
X007009Y009266D01*
X007163Y009419D01*
X007009Y009573D01*
X007470Y009573D01*
X007470Y009726D02*
X007009Y009726D01*
X007009Y010033D01*
X007240Y009879D02*
X007240Y009726D01*
X007470Y009726D02*
X007470Y010033D01*
X007470Y008805D02*
X007009Y008805D01*
X007240Y008498D02*
X007240Y008345D01*
X007470Y008345D02*
X007470Y008652D01*
X007470Y007731D02*
X007240Y007501D01*
X007470Y007424D02*
X007009Y007424D01*
X004615Y021440D02*
X004615Y021620D01*
X004555Y021680D01*
X004495Y021620D01*
X004495Y021440D01*
X004374Y021440D02*
X004374Y021680D01*
X004434Y021680D01*
X004495Y021620D01*
X004246Y021620D02*
X004246Y021440D01*
X004126Y021440D02*
X004126Y021620D01*
X004186Y021680D01*
X004246Y021620D01*
X004126Y021620D02*
X004066Y021680D01*
X004006Y021680D01*
X004006Y021440D01*
X003878Y021500D02*
X003878Y021620D01*
X003818Y021680D01*
X003758Y021680D01*
X003638Y021620D01*
X003638Y021800D01*
X003878Y021800D01*
X003878Y021500D02*
X003818Y021440D01*
X003698Y021440D01*
X003638Y021500D01*
X003512Y021500D02*
X003452Y021500D01*
X003452Y021440D01*
X003512Y021440D01*
X003512Y021500D01*
X003512Y021440D02*
X003392Y021320D01*
X003024Y021440D02*
X003024Y021500D01*
X003264Y021740D01*
X003264Y021800D01*
X003024Y021800D01*
X002776Y021800D02*
X002776Y021440D01*
X002656Y021440D02*
X002896Y021440D01*
X002656Y021680D02*
X002776Y021800D01*
X002528Y021680D02*
X002528Y021440D01*
X002528Y021620D02*
X002287Y021620D01*
X002287Y021680D02*
X002407Y021800D01*
X002528Y021680D01*
X002287Y021680D02*
X002287Y021440D01*
X007090Y026175D02*
X007397Y026482D01*
X007090Y026482D02*
X007397Y026175D01*
X006071Y027521D02*
X005994Y027521D01*
X006071Y027521D02*
X006147Y027598D01*
X006147Y027982D01*
X005840Y027982D02*
X005840Y027751D01*
X005917Y027675D01*
X006147Y027675D01*
X007340Y029175D02*
X007340Y029328D01*
X007340Y029251D02*
X007800Y029251D01*
X007800Y029175D02*
X007800Y029328D01*
X007800Y029635D02*
X007340Y029635D01*
X007340Y029482D02*
X007340Y029788D01*
X007417Y029942D02*
X007724Y029942D01*
X007800Y030019D01*
X007800Y030172D01*
X007724Y030249D01*
X007570Y030249D01*
X007570Y030095D01*
X007417Y029942D02*
X007340Y030019D01*
X007340Y030172D01*
X007417Y030249D01*
X007800Y030402D02*
X007340Y030709D01*
X007340Y030863D02*
X007494Y031016D01*
X007340Y031170D01*
X007800Y031170D01*
X007800Y031323D02*
X007340Y031323D01*
X007340Y031553D01*
X007417Y031630D01*
X007570Y031630D01*
X007647Y031553D01*
X007647Y031323D01*
X007724Y031783D02*
X007340Y031783D01*
X007340Y032090D02*
X007724Y032090D01*
X007800Y032014D01*
X007800Y031860D01*
X007724Y031783D01*
X007800Y030863D02*
X007340Y030863D01*
X008353Y033515D02*
X008506Y033515D01*
X008583Y033592D01*
X008583Y033976D01*
X008736Y033899D02*
X008813Y033976D01*
X008966Y033976D01*
X009043Y033899D01*
X009197Y033899D02*
X009273Y033976D01*
X009427Y033976D01*
X009504Y033899D01*
X009504Y033822D01*
X009427Y033745D01*
X009504Y033669D01*
X009504Y033592D01*
X009427Y033515D01*
X009273Y033515D01*
X009197Y033592D01*
X009043Y033592D02*
X008966Y033515D01*
X008813Y033515D01*
X008736Y033592D01*
X008813Y033745D02*
X008736Y033822D01*
X008736Y033899D01*
X008813Y033745D02*
X008966Y033745D01*
X009043Y033669D01*
X009043Y033592D01*
X008890Y033438D02*
X008890Y034052D01*
X009350Y033745D02*
X009427Y033745D01*
X008353Y033515D02*
X008276Y033592D01*
X008276Y033976D01*
X005041Y037765D02*
X005041Y038226D01*
X005194Y038226D02*
X004887Y038226D01*
X004734Y038226D02*
X004734Y037765D01*
X004427Y038226D01*
X004427Y037765D01*
X004273Y037765D02*
X004273Y038072D01*
X004120Y038226D01*
X003966Y038072D01*
X003966Y037765D01*
X003966Y037995D02*
X004273Y037995D01*
X013085Y038092D02*
X013162Y038015D01*
X013315Y038015D01*
X013392Y038092D01*
X013392Y038245D01*
X013239Y038245D01*
X013085Y038399D02*
X013085Y038092D01*
X013085Y038399D02*
X013162Y038476D01*
X013315Y038476D01*
X013392Y038399D01*
X013546Y038476D02*
X013546Y038015D01*
X013853Y038015D02*
X013546Y038476D01*
X013853Y038476D02*
X013853Y038015D01*
X014006Y038015D02*
X014236Y038015D01*
X014313Y038092D01*
X014313Y038399D01*
X014236Y038476D01*
X014006Y038476D01*
X014006Y038015D01*
X014083Y037476D02*
X014006Y037399D01*
X014006Y037092D01*
X014083Y037015D01*
X014236Y037015D01*
X014313Y037092D01*
X014313Y037399D02*
X014236Y037476D01*
X014083Y037476D01*
X013853Y037399D02*
X013776Y037476D01*
X013622Y037476D01*
X013546Y037399D01*
X013546Y037092D01*
X013622Y037015D01*
X013776Y037015D01*
X013853Y037092D01*
X013392Y037169D02*
X013392Y037476D01*
X013085Y037476D02*
X013085Y037169D01*
X013239Y037015D01*
X013392Y037169D01*
X013239Y039015D02*
X013239Y039476D01*
X013392Y039476D02*
X013085Y039476D01*
X013546Y039476D02*
X013853Y039015D01*
X014006Y039015D02*
X014236Y039015D01*
X014313Y039092D01*
X014313Y039399D01*
X014236Y039476D01*
X014006Y039476D01*
X014006Y039015D01*
X013546Y039015D02*
X013853Y039476D01*
X013853Y040015D02*
X013546Y040476D01*
X013392Y040399D02*
X013392Y040245D01*
X013315Y040169D01*
X013085Y040169D01*
X013239Y040169D02*
X013392Y040015D01*
X013546Y040015D02*
X013853Y040476D01*
X014006Y040476D02*
X014236Y040476D01*
X014313Y040399D01*
X014313Y040092D01*
X014236Y040015D01*
X014006Y040015D01*
X014006Y040476D01*
X014083Y041015D02*
X014006Y041092D01*
X014083Y041015D02*
X014236Y041015D01*
X014313Y041092D01*
X014313Y041169D01*
X014236Y041245D01*
X014083Y041245D01*
X014006Y041322D01*
X014006Y041399D01*
X014083Y041476D01*
X014236Y041476D01*
X014313Y041399D01*
X013853Y041399D02*
X013853Y041245D01*
X013776Y041169D01*
X013546Y041169D01*
X013546Y041015D02*
X013546Y041476D01*
X013776Y041476D01*
X013853Y041399D01*
X013392Y041399D02*
X013392Y041245D01*
X013315Y041169D01*
X013085Y041169D01*
X013085Y041015D02*
X013085Y041476D01*
X013315Y041476D01*
X013392Y041399D01*
X013315Y040476D02*
X013392Y040399D01*
X013315Y040476D02*
X013085Y040476D01*
X013085Y040015D01*
X019663Y031560D02*
X019663Y031177D01*
X019740Y031100D01*
X019894Y031100D01*
X019970Y031177D01*
X019970Y031560D01*
X020124Y031483D02*
X020200Y031560D01*
X020354Y031560D01*
X020431Y031483D01*
X020584Y031483D02*
X020661Y031560D01*
X020814Y031560D01*
X020891Y031483D01*
X020891Y031407D01*
X020584Y031100D01*
X020891Y031100D01*
X020431Y031177D02*
X020431Y031253D01*
X020354Y031330D01*
X020200Y031330D01*
X020124Y031407D01*
X020124Y031483D01*
X020277Y031637D02*
X020277Y031023D01*
X020200Y031100D02*
X020354Y031100D01*
X020431Y031177D01*
X020200Y031100D02*
X020124Y031177D01*
X008848Y024015D02*
X008848Y023708D01*
X008848Y023861D02*
X008387Y023861D01*
X008541Y023708D01*
X008464Y023554D02*
X008387Y023478D01*
X008387Y023324D01*
X008464Y023248D01*
X008541Y023248D01*
X008618Y023324D01*
X008618Y023478D01*
X008694Y023554D01*
X008771Y023554D01*
X008848Y023478D01*
X008848Y023324D01*
X008771Y023248D01*
X008771Y023094D02*
X008387Y023094D01*
X008387Y022787D02*
X008771Y022787D01*
X008848Y022864D01*
X008848Y023017D01*
X008771Y023094D01*
X008924Y023401D02*
X008311Y023401D01*
X019265Y010033D02*
X019265Y009726D01*
X019726Y009726D01*
X019726Y010033D01*
X019495Y009879D02*
X019495Y009726D01*
X019265Y009573D02*
X019726Y009573D01*
X019726Y009266D02*
X019265Y009266D01*
X019419Y009419D01*
X019265Y009573D01*
X019265Y009112D02*
X019726Y009112D01*
X019726Y008805D02*
X019265Y008805D01*
X019419Y008959D01*
X019265Y009112D01*
X019265Y008652D02*
X019265Y008345D01*
X019726Y008345D01*
X019726Y008652D01*
X019495Y008498D02*
X019495Y008345D01*
X019726Y008191D02*
X019726Y007884D01*
X019265Y007884D01*
X019265Y007731D02*
X019572Y007424D01*
X019495Y007501D02*
X019726Y007731D01*
X019726Y007424D02*
X019265Y007424D01*
X019802Y007271D02*
X019802Y006964D01*
X019726Y006810D02*
X019572Y006657D01*
X019572Y006733D02*
X019572Y006503D01*
X019726Y006503D02*
X019265Y006503D01*
X019265Y006733D01*
X019342Y006810D01*
X019495Y006810D01*
X019572Y006733D01*
X019726Y006350D02*
X019726Y006043D01*
X019265Y006043D01*
X019265Y006350D01*
X019495Y006196D02*
X019495Y006043D01*
X019265Y005889D02*
X019265Y005582D01*
X019265Y005736D02*
X019726Y005736D01*
X019726Y005429D02*
X019726Y005122D01*
X019265Y005122D01*
X019419Y004969D02*
X019265Y004815D01*
X019419Y004662D01*
X019726Y004662D01*
X019726Y004508D02*
X019265Y004508D01*
X019495Y004508D02*
X019495Y004201D01*
X019342Y004048D02*
X019265Y003971D01*
X019265Y003818D01*
X019342Y003741D01*
X019649Y003741D01*
X019726Y003818D01*
X019726Y003971D01*
X019649Y004048D01*
X019726Y004201D02*
X019265Y004201D01*
X019495Y004662D02*
X019495Y004969D01*
X019419Y004969D02*
X019726Y004969D01*
X019649Y003587D02*
X019726Y003511D01*
X019726Y003357D01*
X019649Y003281D01*
X019495Y003357D02*
X019495Y003511D01*
X019572Y003587D01*
X019649Y003587D01*
X019495Y003357D02*
X019419Y003281D01*
X019342Y003281D01*
X019265Y003357D01*
X019265Y003511D01*
X019342Y003587D01*
X028387Y008084D02*
X028387Y008314D01*
X028464Y008391D01*
X028541Y008391D01*
X028618Y008314D01*
X028618Y008084D01*
X028848Y008084D02*
X028848Y008314D01*
X028771Y008391D01*
X028694Y008391D01*
X028618Y008314D01*
X028618Y008544D02*
X028618Y008851D01*
X028541Y008851D02*
X028848Y008851D01*
X028848Y008544D02*
X028541Y008544D01*
X028387Y008698D01*
X028541Y008851D01*
X028387Y009005D02*
X028387Y009312D01*
X028387Y009465D02*
X028387Y009772D01*
X028387Y009619D02*
X028848Y009619D01*
X028848Y009926D02*
X028387Y009926D01*
X028387Y010233D01*
X028387Y010386D02*
X028387Y010616D01*
X028464Y010693D01*
X028618Y010693D01*
X028694Y010616D01*
X028694Y010386D01*
X028694Y010539D02*
X028848Y010693D01*
X028848Y010846D02*
X028848Y011000D01*
X028848Y010923D02*
X028387Y010923D01*
X028387Y010846D02*
X028387Y011000D01*
X028387Y011153D02*
X028848Y011153D01*
X028848Y011460D01*
X028924Y011614D02*
X028924Y011921D01*
X028848Y012074D02*
X028541Y012074D01*
X028387Y012228D01*
X028541Y012381D01*
X028848Y012381D01*
X028848Y012535D02*
X028387Y012535D01*
X028848Y012841D01*
X028387Y012841D01*
X028464Y012995D02*
X028541Y012995D01*
X028618Y013072D01*
X028618Y013225D01*
X028694Y013302D01*
X028771Y013302D01*
X028848Y013225D01*
X028848Y013072D01*
X028771Y012995D01*
X028464Y012995D02*
X028387Y013072D01*
X028387Y013225D01*
X028464Y013302D01*
X028464Y013455D02*
X028771Y013455D01*
X028848Y013532D01*
X028848Y013685D01*
X028771Y013762D01*
X028848Y013916D02*
X028387Y013916D01*
X028464Y013762D02*
X028387Y013685D01*
X028387Y013532D01*
X028464Y013455D01*
X028618Y013916D02*
X028618Y014223D01*
X028848Y014223D02*
X028387Y014223D01*
X028387Y014376D02*
X028848Y014376D01*
X028848Y014683D01*
X028771Y014836D02*
X028387Y014836D01*
X028387Y015143D02*
X028771Y015143D01*
X028848Y015067D01*
X028848Y014913D01*
X028771Y014836D01*
X028771Y015297D02*
X028848Y015374D01*
X028848Y015527D01*
X028771Y015604D01*
X028694Y015604D01*
X028618Y015527D01*
X028618Y015374D01*
X028541Y015297D01*
X028464Y015297D01*
X028387Y015374D01*
X028387Y015527D01*
X028464Y015604D01*
X028464Y015757D02*
X028541Y015757D01*
X028618Y015834D01*
X028618Y015987D01*
X028694Y016064D01*
X028771Y016064D01*
X028848Y015987D01*
X028848Y015834D01*
X028771Y015757D01*
X028464Y015757D02*
X028387Y015834D01*
X028387Y015987D01*
X028464Y016064D01*
X028618Y012381D02*
X028618Y012074D01*
X028387Y011460D02*
X028387Y011153D01*
X028618Y011153D02*
X028618Y011307D01*
X028848Y010386D02*
X028387Y010386D01*
X028618Y010079D02*
X028618Y009926D01*
X028848Y009926D02*
X028848Y010233D01*
X028848Y009158D02*
X028387Y009158D01*
X028387Y008084D02*
X028848Y008084D01*
X038009Y008084D02*
X038009Y008391D01*
X038086Y008391D01*
X038393Y008084D01*
X038470Y008084D01*
X038470Y008391D01*
X038470Y008544D02*
X038470Y008698D01*
X038470Y008621D02*
X038009Y008621D01*
X038009Y008544D02*
X038009Y008698D01*
X038086Y008851D02*
X038393Y008851D01*
X038470Y008928D01*
X038470Y009082D01*
X038393Y009158D01*
X038240Y009158D01*
X038240Y009005D01*
X038086Y009158D02*
X038009Y009082D01*
X038009Y008928D01*
X038086Y008851D01*
X038009Y009312D02*
X038009Y009542D01*
X038086Y009619D01*
X038163Y009619D01*
X038240Y009542D01*
X038240Y009312D01*
X038470Y009312D02*
X038009Y009312D01*
X038240Y009542D02*
X038316Y009619D01*
X038393Y009619D01*
X038470Y009542D01*
X038470Y009312D01*
X038470Y009772D02*
X038009Y009772D01*
X038009Y010079D01*
X038009Y010233D02*
X038470Y010233D01*
X038470Y010539D01*
X038546Y010693D02*
X038546Y011000D01*
X038470Y011153D02*
X038009Y011153D01*
X038240Y011230D02*
X038470Y011460D01*
X038470Y011614D02*
X038009Y011614D01*
X038009Y011460D02*
X038316Y011153D01*
X038470Y011614D02*
X038470Y011921D01*
X038470Y012074D02*
X038009Y012074D01*
X038009Y012381D01*
X038009Y012535D02*
X038163Y012688D01*
X038009Y012841D01*
X038470Y012841D01*
X038470Y012995D02*
X038009Y012995D01*
X038163Y013148D01*
X038009Y013302D01*
X038470Y013302D01*
X038470Y013455D02*
X038009Y013455D01*
X038009Y013762D01*
X038240Y013609D02*
X038240Y013455D01*
X038470Y013455D02*
X038470Y013762D01*
X038470Y012535D02*
X038009Y012535D01*
X038240Y012228D02*
X038240Y012074D01*
X038470Y012074D02*
X038470Y012381D01*
X038009Y010539D02*
X038009Y010233D01*
X038240Y010233D02*
X038240Y010386D01*
X038470Y010079D02*
X038470Y009772D01*
X038240Y009772D02*
X038240Y009926D01*
D13*
X035397Y025145D02*
X035164Y025145D01*
X035047Y025262D01*
X035047Y025729D01*
X035164Y025846D01*
X035397Y025846D01*
X035514Y025729D01*
X035514Y025262D02*
X035397Y025145D01*
X034814Y025145D02*
X034697Y025262D01*
X034697Y025729D01*
X034580Y025612D02*
X034814Y025612D01*
X034230Y025612D02*
X034230Y025145D01*
X034114Y025145D02*
X034347Y025145D01*
X033881Y025145D02*
X033531Y025379D01*
X033881Y025612D01*
X034114Y025612D02*
X034230Y025612D01*
X034230Y025846D02*
X034230Y025963D01*
X033531Y025846D02*
X033531Y025145D01*
X033064Y025145D02*
X033298Y025612D01*
X032831Y025612D02*
X033064Y025145D01*
X032598Y025379D02*
X032131Y025379D01*
X032131Y025496D02*
X032248Y025612D01*
X032481Y025612D01*
X032598Y025496D01*
X032598Y025379D01*
X032481Y025145D02*
X032248Y025145D01*
X032131Y025262D01*
X032131Y025496D01*
X031898Y025729D02*
X031781Y025846D01*
X031431Y025846D01*
X031431Y025145D01*
X031781Y025145D01*
X031898Y025262D01*
X031898Y025729D01*
X031198Y025496D02*
X030731Y025496D01*
X030499Y025612D02*
X030499Y025729D01*
X030382Y025846D01*
X030148Y025846D01*
X030032Y025729D01*
X029799Y025729D02*
X029799Y025612D01*
X029682Y025496D01*
X029799Y025379D01*
X029799Y025262D01*
X029682Y025145D01*
X029449Y025145D01*
X029332Y025262D01*
X029099Y025496D02*
X029099Y025729D01*
X028982Y025846D01*
X028632Y025846D01*
X028632Y025145D01*
X028632Y025379D02*
X028982Y025379D01*
X029099Y025496D01*
X029332Y025729D02*
X029449Y025846D01*
X029682Y025846D01*
X029799Y025729D01*
X029682Y025496D02*
X029565Y025496D01*
X030032Y025145D02*
X030499Y025612D01*
X030499Y025145D02*
X030032Y025145D01*
X028399Y025262D02*
X028282Y025145D01*
X028049Y025145D01*
X027932Y025262D01*
X027699Y025145D02*
X027232Y025145D01*
X027232Y025846D01*
X027699Y025846D01*
X027932Y025729D02*
X027932Y025612D01*
X028049Y025496D01*
X028282Y025496D01*
X028399Y025379D01*
X028399Y025262D01*
X028399Y025729D02*
X028282Y025846D01*
X028049Y025846D01*
X027932Y025729D01*
X027466Y025496D02*
X027232Y025496D01*
X023881Y018612D02*
X023881Y018462D01*
X023831Y018412D01*
X023831Y016512D01*
X023881Y016462D01*
X023881Y016312D01*
X023879Y016295D01*
X023875Y016278D01*
X023868Y016262D01*
X023858Y016248D01*
X023845Y016235D01*
X023831Y016225D01*
X023815Y016218D01*
X023798Y016214D01*
X023781Y016212D01*
X023081Y016212D02*
X023064Y016214D01*
X023047Y016218D01*
X023031Y016225D01*
X023017Y016235D01*
X023004Y016248D01*
X022994Y016262D01*
X022987Y016278D01*
X022983Y016295D01*
X022981Y016312D01*
X022981Y016462D01*
X023031Y016512D01*
X023031Y018412D01*
X022981Y018462D01*
X022981Y018612D01*
X022983Y018629D01*
X022987Y018646D01*
X022994Y018662D01*
X023004Y018676D01*
X023017Y018689D01*
X023031Y018699D01*
X023047Y018706D01*
X023064Y018710D01*
X023081Y018712D01*
X023781Y018712D02*
X023798Y018710D01*
X023815Y018706D01*
X023831Y018699D01*
X023845Y018689D01*
X023858Y018676D01*
X023868Y018662D01*
X023875Y018646D01*
X023879Y018629D01*
X023881Y018612D01*
X021767Y018651D02*
X021767Y018501D01*
X021717Y018451D01*
X021717Y016551D01*
X021767Y016501D01*
X021767Y016351D01*
X021765Y016334D01*
X021761Y016317D01*
X021754Y016301D01*
X021744Y016287D01*
X021731Y016274D01*
X021717Y016264D01*
X021701Y016257D01*
X021684Y016253D01*
X021667Y016251D01*
X020967Y016251D02*
X020950Y016253D01*
X020933Y016257D01*
X020917Y016264D01*
X020903Y016274D01*
X020890Y016287D01*
X020880Y016301D01*
X020873Y016317D01*
X020869Y016334D01*
X020867Y016351D01*
X020867Y016501D01*
X020917Y016551D01*
X020917Y018451D01*
X020867Y018501D01*
X020867Y018651D01*
X020869Y018668D01*
X020873Y018685D01*
X020880Y018701D01*
X020890Y018715D01*
X020903Y018728D01*
X020917Y018738D01*
X020933Y018745D01*
X020950Y018749D01*
X020967Y018751D01*
X021667Y018751D02*
X021684Y018749D01*
X021701Y018745D01*
X021717Y018738D01*
X021731Y018728D01*
X021744Y018715D01*
X021754Y018701D01*
X021761Y018685D01*
X021765Y018668D01*
X021767Y018651D01*
X013717Y016028D02*
X013717Y015388D01*
X013290Y016028D01*
X013290Y015388D01*
X013074Y015388D02*
X012861Y015388D01*
X012967Y015388D02*
X012967Y016028D01*
X012861Y016028D02*
X013074Y016028D01*
X006067Y017820D02*
X006067Y022720D01*
X005717Y022720D01*
X005717Y023320D01*
X006067Y023320D01*
X006067Y024070D01*
X001967Y024070D01*
X001967Y023320D01*
X002317Y023320D01*
X002317Y022720D01*
X001967Y022720D01*
X001967Y017820D01*
X006067Y017820D01*
X005384Y014585D02*
X005234Y014585D01*
X005184Y014535D01*
X003284Y014535D01*
X003234Y014585D01*
X003084Y014585D01*
X003067Y014583D01*
X003050Y014579D01*
X003034Y014572D01*
X003020Y014562D01*
X003007Y014549D01*
X002997Y014535D01*
X002990Y014519D01*
X002986Y014502D01*
X002984Y014485D01*
X002984Y013785D02*
X002986Y013768D01*
X002990Y013751D01*
X002997Y013735D01*
X003007Y013721D01*
X003020Y013708D01*
X003034Y013698D01*
X003050Y013691D01*
X003067Y013687D01*
X003084Y013685D01*
X003234Y013685D01*
X003284Y013735D01*
X005184Y013735D01*
X005234Y013685D01*
X005384Y013685D01*
X005401Y013687D01*
X005418Y013691D01*
X005434Y013698D01*
X005448Y013708D01*
X005461Y013721D01*
X005471Y013735D01*
X005478Y013751D01*
X005482Y013768D01*
X005484Y013785D01*
X005484Y014485D02*
X005482Y014502D01*
X005478Y014519D01*
X005471Y014535D01*
X005461Y014549D01*
X005448Y014562D01*
X005434Y014572D01*
X005418Y014579D01*
X005401Y014583D01*
X005384Y014585D01*
X003307Y022720D02*
X003309Y022773D01*
X003315Y022826D01*
X003325Y022878D01*
X003339Y022929D01*
X003356Y022979D01*
X003377Y023028D01*
X003402Y023075D01*
X003430Y023120D01*
X003462Y023163D01*
X003497Y023203D01*
X003534Y023240D01*
X003574Y023275D01*
X003617Y023307D01*
X003662Y023335D01*
X003709Y023360D01*
X003758Y023381D01*
X003808Y023398D01*
X003859Y023412D01*
X003911Y023422D01*
X003964Y023428D01*
X004017Y023430D01*
X004070Y023428D01*
X004123Y023422D01*
X004175Y023412D01*
X004226Y023398D01*
X004276Y023381D01*
X004325Y023360D01*
X004372Y023335D01*
X004417Y023307D01*
X004460Y023275D01*
X004500Y023240D01*
X004537Y023203D01*
X004572Y023163D01*
X004604Y023120D01*
X004632Y023075D01*
X004657Y023028D01*
X004678Y022979D01*
X004695Y022929D01*
X004709Y022878D01*
X004719Y022826D01*
X004725Y022773D01*
X004727Y022720D01*
X004725Y022667D01*
X004719Y022614D01*
X004709Y022562D01*
X004695Y022511D01*
X004678Y022461D01*
X004657Y022412D01*
X004632Y022365D01*
X004604Y022320D01*
X004572Y022277D01*
X004537Y022237D01*
X004500Y022200D01*
X004460Y022165D01*
X004417Y022133D01*
X004372Y022105D01*
X004325Y022080D01*
X004276Y022059D01*
X004226Y022042D01*
X004175Y022028D01*
X004123Y022018D01*
X004070Y022012D01*
X004017Y022010D01*
X003964Y022012D01*
X003911Y022018D01*
X003859Y022028D01*
X003808Y022042D01*
X003758Y022059D01*
X003709Y022080D01*
X003662Y022105D01*
X003617Y022133D01*
X003574Y022165D01*
X003534Y022200D01*
X003497Y022237D01*
X003462Y022277D01*
X003430Y022320D01*
X003402Y022365D01*
X003377Y022412D01*
X003356Y022461D01*
X003339Y022511D01*
X003325Y022562D01*
X003315Y022614D01*
X003309Y022667D01*
X003307Y022720D01*
X012431Y030995D02*
X012538Y030888D01*
X012751Y030888D01*
X012858Y030995D01*
X012858Y031422D01*
X012751Y031528D01*
X012538Y031528D01*
X012431Y031422D01*
X012431Y030995D01*
X013075Y030995D02*
X013182Y030888D01*
X013396Y030888D01*
X013502Y030995D01*
X013502Y031528D01*
X013720Y031528D02*
X014147Y031528D01*
X013934Y031528D02*
X013934Y030888D01*
X013075Y030995D02*
X013075Y031528D01*
X018950Y038359D02*
X022950Y038359D01*
X022950Y040359D01*
X018950Y040359D01*
X018950Y039609D01*
X018980Y039607D01*
X019010Y039602D01*
X019039Y039593D01*
X019066Y039580D01*
X019092Y039565D01*
X019116Y039546D01*
X019137Y039525D01*
X019156Y039501D01*
X019171Y039475D01*
X019184Y039448D01*
X019193Y039419D01*
X019198Y039389D01*
X019200Y039359D01*
X019198Y039329D01*
X019193Y039299D01*
X019184Y039270D01*
X019171Y039243D01*
X019156Y039217D01*
X019137Y039193D01*
X019116Y039172D01*
X019092Y039153D01*
X019066Y039138D01*
X019039Y039125D01*
X019010Y039116D01*
X018980Y039111D01*
X018950Y039109D01*
X018950Y038359D01*
D14*
X016118Y031208D02*
X015618Y031208D01*
X019643Y030580D02*
X019643Y020580D01*
X038643Y020580D01*
X038643Y030580D01*
X019643Y030580D01*
X011118Y031208D02*
X010618Y031208D01*
X010868Y030958D02*
X010868Y031458D01*
X010868Y015958D02*
X010868Y015458D01*
X010618Y015708D02*
X011118Y015708D01*
X015618Y015708D02*
X016118Y015708D01*
D15*
X020147Y023351D02*
X023171Y023351D01*
X023171Y025871D01*
X022163Y025871D02*
X020147Y025871D01*
X020147Y025367D01*
X022163Y025367D01*
X022163Y024863D01*
X020147Y024863D01*
X020147Y024359D01*
X022163Y024359D01*
X022163Y023855D01*
X020147Y023855D01*
X020147Y023351D01*
X022163Y025871D02*
X022163Y026375D01*
X020147Y026375D01*
X020147Y027887D01*
D16*
X020083Y028162D02*
X020330Y028162D01*
X020392Y028223D01*
X020392Y028347D01*
X020330Y028409D01*
X020207Y028409D01*
X020207Y028285D01*
X020083Y028162D02*
X020022Y028223D01*
X020022Y028347D01*
X020083Y028409D01*
X020022Y028530D02*
X020392Y028777D01*
X020022Y028777D01*
X020022Y028898D02*
X020022Y029084D01*
X020083Y029145D01*
X020330Y029145D01*
X020392Y029084D01*
X020392Y028898D01*
X020022Y028898D01*
X020022Y028530D02*
X020392Y028530D01*
X021022Y028469D02*
X021083Y028407D01*
X021330Y028407D01*
X021392Y028469D01*
X021392Y028592D01*
X021330Y028654D01*
X021083Y028654D01*
X021022Y028592D01*
X021022Y028469D01*
X021022Y028285D02*
X021022Y028162D01*
X021022Y028223D02*
X021392Y028223D01*
X021392Y028162D02*
X021392Y028285D01*
X021392Y028776D02*
X021145Y029022D01*
X021083Y029022D01*
X021022Y028961D01*
X021022Y028837D01*
X021083Y028776D01*
X021392Y028776D02*
X021392Y029022D01*
X021330Y029144D02*
X021392Y029206D01*
X021392Y029329D01*
X021330Y029391D01*
X021269Y029391D01*
X021207Y029329D01*
X021207Y029267D01*
X021207Y029329D02*
X021145Y029391D01*
X021083Y029391D01*
X021022Y029329D01*
X021022Y029206D01*
X021083Y029144D01*
X022022Y029206D02*
X022083Y029144D01*
X022022Y029206D02*
X022022Y029329D01*
X022083Y029391D01*
X022145Y029391D01*
X022392Y029144D01*
X022392Y029391D01*
X022392Y029022D02*
X022392Y028776D01*
X022145Y029022D01*
X022083Y029022D01*
X022022Y028961D01*
X022022Y028837D01*
X022083Y028776D01*
X022083Y028654D02*
X022022Y028592D01*
X022022Y028469D01*
X022083Y028407D01*
X022330Y028407D01*
X022392Y028469D01*
X022392Y028592D01*
X022330Y028654D01*
X022083Y028654D01*
X022022Y028285D02*
X022022Y028162D01*
X022022Y028223D02*
X022392Y028223D01*
X022392Y028162D02*
X022392Y028285D01*
X023022Y028285D02*
X023392Y028285D01*
X023392Y028530D02*
X023022Y028777D01*
X023022Y028898D02*
X023022Y029084D01*
X023083Y029145D01*
X023330Y029145D01*
X023392Y029084D01*
X023392Y028898D01*
X023022Y028898D01*
X023022Y028530D02*
X023392Y028777D01*
X023330Y029267D02*
X023083Y029514D01*
X023330Y029514D01*
X023392Y029452D01*
X023392Y029328D01*
X023330Y029267D01*
X023083Y029267D01*
X023022Y029328D01*
X023022Y029452D01*
X023083Y029514D01*
X024022Y029452D02*
X024022Y029328D01*
X024083Y029267D01*
X024330Y029267D01*
X024083Y029514D01*
X024330Y029514D01*
X024392Y029452D01*
X024392Y029328D01*
X024330Y029267D01*
X024330Y029145D02*
X024083Y029145D01*
X024022Y029084D01*
X024022Y028898D01*
X024392Y028898D01*
X024392Y029084D01*
X024330Y029145D01*
X024392Y028777D02*
X024022Y028530D01*
X024083Y028409D02*
X024207Y028409D01*
X024269Y028347D01*
X024269Y028162D01*
X024392Y028162D02*
X024022Y028162D01*
X024022Y028347D01*
X024083Y028409D01*
X024269Y028285D02*
X024392Y028409D01*
X024392Y028530D02*
X024022Y028777D01*
X024022Y029452D02*
X024083Y029514D01*
X025022Y029267D02*
X025392Y029267D01*
X025392Y029144D02*
X025392Y029391D01*
X025145Y029144D02*
X025022Y029267D01*
X025083Y029022D02*
X025022Y028961D01*
X025022Y028837D01*
X025083Y028776D01*
X025083Y028654D02*
X025022Y028592D01*
X025022Y028469D01*
X025083Y028407D01*
X025330Y028407D01*
X025392Y028469D01*
X025392Y028592D01*
X025330Y028654D01*
X025083Y028654D01*
X025392Y028776D02*
X025145Y029022D01*
X025083Y029022D01*
X025392Y029022D02*
X025392Y028776D01*
X025392Y028285D02*
X025392Y028162D01*
X025392Y028223D02*
X025022Y028223D01*
X025022Y028162D02*
X025022Y028285D01*
X026022Y028223D02*
X026083Y028162D01*
X026330Y028162D01*
X026392Y028223D01*
X026392Y028347D01*
X026330Y028409D01*
X026207Y028409D01*
X026207Y028285D01*
X026083Y028409D02*
X026022Y028347D01*
X026022Y028223D01*
X026022Y028530D02*
X026392Y028777D01*
X026022Y028777D01*
X026022Y028898D02*
X026022Y029084D01*
X026083Y029145D01*
X026330Y029145D01*
X026392Y029084D01*
X026392Y028898D01*
X026022Y028898D01*
X026022Y028530D02*
X026392Y028530D01*
X027022Y028469D02*
X027083Y028407D01*
X027330Y028407D01*
X027392Y028469D01*
X027392Y028592D01*
X027330Y028654D01*
X027083Y028654D01*
X027022Y028592D01*
X027022Y028469D01*
X027022Y028285D02*
X027022Y028162D01*
X027022Y028223D02*
X027392Y028223D01*
X027392Y028162D02*
X027392Y028285D01*
X027392Y028776D02*
X027392Y029022D01*
X027392Y028899D02*
X027022Y028899D01*
X027145Y028776D01*
X027145Y029144D02*
X027207Y029206D01*
X027207Y029391D01*
X027330Y029391D02*
X027083Y029391D01*
X027022Y029329D01*
X027022Y029206D01*
X027083Y029144D01*
X027145Y029144D01*
X027330Y029144D02*
X027392Y029206D01*
X027392Y029329D01*
X027330Y029391D01*
X028022Y029329D02*
X028083Y029391D01*
X028145Y029391D01*
X028207Y029329D01*
X028207Y029206D01*
X028145Y029144D01*
X028083Y029144D01*
X028022Y029206D01*
X028022Y029329D01*
X028207Y029329D02*
X028269Y029391D01*
X028330Y029391D01*
X028392Y029329D01*
X028392Y029206D01*
X028330Y029144D01*
X028269Y029144D01*
X028207Y029206D01*
X028392Y029022D02*
X028392Y028776D01*
X028392Y028899D02*
X028022Y028899D01*
X028145Y028776D01*
X028083Y028654D02*
X028330Y028654D01*
X028392Y028592D01*
X028392Y028469D01*
X028330Y028407D01*
X028083Y028407D01*
X028022Y028469D01*
X028022Y028592D01*
X028083Y028654D01*
X028022Y028285D02*
X028022Y028162D01*
X028022Y028223D02*
X028392Y028223D01*
X028392Y028162D02*
X028392Y028285D01*
X029022Y028285D02*
X029022Y028162D01*
X029022Y028223D02*
X029392Y028223D01*
X029392Y028162D02*
X029392Y028285D01*
X029330Y028407D02*
X029392Y028469D01*
X029392Y028592D01*
X029330Y028654D01*
X029083Y028654D01*
X029022Y028592D01*
X029022Y028469D01*
X029083Y028407D01*
X029330Y028407D01*
X029330Y028776D02*
X029392Y028837D01*
X029392Y028961D01*
X029330Y029022D01*
X029207Y029022D01*
X029145Y028961D01*
X029145Y028899D01*
X029207Y028776D01*
X029022Y028776D01*
X029022Y029022D01*
X030022Y029144D02*
X030022Y029391D01*
X030083Y029391D01*
X030330Y029144D01*
X030392Y029144D01*
X030392Y029022D02*
X030392Y028776D01*
X030392Y028899D02*
X030022Y028899D01*
X030145Y028776D01*
X030083Y028654D02*
X030022Y028592D01*
X030022Y028469D01*
X030083Y028407D01*
X030330Y028407D01*
X030392Y028469D01*
X030392Y028592D01*
X030330Y028654D01*
X030083Y028654D01*
X030022Y028285D02*
X030022Y028162D01*
X030022Y028223D02*
X030392Y028223D01*
X030392Y028162D02*
X030392Y028285D01*
X031022Y028285D02*
X031022Y028162D01*
X031022Y028223D02*
X031392Y028223D01*
X031392Y028162D02*
X031392Y028285D01*
X031330Y028407D02*
X031392Y028469D01*
X031392Y028592D01*
X031330Y028654D01*
X031083Y028654D01*
X031022Y028592D01*
X031022Y028469D01*
X031083Y028407D01*
X031330Y028407D01*
X031392Y028776D02*
X031392Y029022D01*
X031392Y028899D02*
X031022Y028899D01*
X031145Y028776D01*
X031207Y029144D02*
X031207Y029329D01*
X031269Y029391D01*
X031330Y029391D01*
X031392Y029329D01*
X031392Y029206D01*
X031330Y029144D01*
X031207Y029144D01*
X031083Y029267D01*
X031022Y029391D01*
X032022Y028961D02*
X032207Y028776D01*
X032207Y029022D01*
X032392Y028961D02*
X032022Y028961D01*
X032083Y028654D02*
X032022Y028592D01*
X032022Y028469D01*
X032083Y028407D01*
X032330Y028407D01*
X032392Y028469D01*
X032392Y028592D01*
X032330Y028654D01*
X032083Y028654D01*
X032022Y028285D02*
X032022Y028162D01*
X032022Y028223D02*
X032392Y028223D01*
X032392Y028162D02*
X032392Y028285D01*
X033022Y028285D02*
X033022Y028162D01*
X033022Y028223D02*
X033392Y028223D01*
X033392Y028162D02*
X033392Y028285D01*
X033330Y028407D02*
X033392Y028469D01*
X033392Y028592D01*
X033330Y028654D01*
X033083Y028654D01*
X033022Y028592D01*
X033022Y028469D01*
X033083Y028407D01*
X033330Y028407D01*
X033330Y028776D02*
X033083Y028776D01*
X033022Y028837D01*
X033022Y028961D01*
X033083Y029022D01*
X033330Y028776D01*
X033392Y028837D01*
X033392Y028961D01*
X033330Y029022D01*
X033083Y029022D01*
X034022Y028961D02*
X034022Y028837D01*
X034083Y028776D01*
X034083Y028654D02*
X034022Y028592D01*
X034022Y028469D01*
X034083Y028407D01*
X034330Y028407D01*
X034392Y028469D01*
X034392Y028592D01*
X034330Y028654D01*
X034083Y028654D01*
X034022Y028961D02*
X034083Y029022D01*
X034145Y029022D01*
X034392Y028776D01*
X034392Y029022D01*
X035022Y029144D02*
X035207Y029144D01*
X035145Y029267D01*
X035145Y029329D01*
X035207Y029391D01*
X035330Y029391D01*
X035392Y029329D01*
X035392Y029206D01*
X035330Y029144D01*
X035392Y029022D02*
X035392Y028776D01*
X035392Y028899D02*
X035022Y028899D01*
X035145Y028776D01*
X035083Y028654D02*
X035022Y028592D01*
X035022Y028469D01*
X035083Y028407D01*
X035330Y028407D01*
X035392Y028469D01*
X035392Y028592D01*
X035330Y028654D01*
X035083Y028654D01*
X035022Y028285D02*
X035022Y028162D01*
X035022Y028223D02*
X035392Y028223D01*
X035392Y028162D02*
X035392Y028285D01*
X036022Y028223D02*
X036083Y028162D01*
X036145Y028162D01*
X036207Y028223D01*
X036207Y028347D01*
X036269Y028409D01*
X036330Y028409D01*
X036392Y028347D01*
X036392Y028223D01*
X036330Y028162D01*
X036022Y028223D02*
X036022Y028347D01*
X036083Y028409D01*
X036022Y028530D02*
X036022Y028715D01*
X036083Y028777D01*
X036330Y028777D01*
X036392Y028715D01*
X036392Y028530D01*
X036022Y028530D01*
X036145Y028898D02*
X036022Y029022D01*
X036392Y029022D01*
X036392Y029145D02*
X036392Y028898D01*
X037022Y028960D02*
X037083Y028898D01*
X037330Y028898D01*
X037083Y029145D01*
X037330Y029145D01*
X037392Y029084D01*
X037392Y028960D01*
X037330Y028898D01*
X037330Y028777D02*
X037083Y028777D01*
X037022Y028715D01*
X037022Y028530D01*
X037392Y028530D01*
X037392Y028715D01*
X037330Y028777D01*
X037022Y028960D02*
X037022Y029084D01*
X037083Y029145D01*
X037083Y028409D02*
X037022Y028347D01*
X037022Y028223D01*
X037083Y028162D01*
X037145Y028162D01*
X037207Y028223D01*
X037207Y028347D01*
X037269Y028409D01*
X037330Y028409D01*
X037392Y028347D01*
X037392Y028223D01*
X037330Y028162D01*
X038022Y028223D02*
X038083Y028162D01*
X038330Y028162D01*
X038392Y028223D01*
X038392Y028347D01*
X038330Y028409D01*
X038392Y028530D02*
X038022Y028530D01*
X038083Y028409D02*
X038022Y028347D01*
X038022Y028223D01*
X038392Y028530D02*
X038392Y028777D01*
X038392Y028898D02*
X038022Y028898D01*
X038207Y028960D02*
X038392Y029145D01*
X038269Y028898D02*
X038022Y029145D01*
X035022Y029144D02*
X035022Y029391D01*
X034392Y028285D02*
X034392Y028162D01*
X034392Y028223D02*
X034022Y028223D01*
X034022Y028162D02*
X034022Y028285D01*
X034076Y023084D02*
X034014Y023022D01*
X034014Y022899D01*
X034076Y022837D01*
X034199Y022960D02*
X034199Y023022D01*
X034261Y023084D01*
X034322Y023084D01*
X034384Y023022D01*
X034384Y022899D01*
X034322Y022837D01*
X034384Y022715D02*
X034384Y022468D01*
X034384Y022592D02*
X034014Y022592D01*
X034137Y022468D01*
X034076Y022347D02*
X034014Y022285D01*
X034014Y022162D01*
X034076Y022100D01*
X034322Y022100D01*
X034384Y022162D01*
X034384Y022285D01*
X034322Y022347D01*
X034076Y022347D01*
X034014Y021978D02*
X034014Y021855D01*
X034014Y021916D02*
X034384Y021916D01*
X034384Y021855D02*
X034384Y021978D01*
X035014Y021916D02*
X035076Y021855D01*
X035137Y021855D01*
X035199Y021916D01*
X035199Y022040D01*
X035261Y022102D01*
X035322Y022102D01*
X035384Y022040D01*
X035384Y021916D01*
X035322Y021855D01*
X035014Y021916D02*
X035014Y022040D01*
X035076Y022102D01*
X035014Y022223D02*
X035014Y022408D01*
X035076Y022470D01*
X035322Y022470D01*
X035384Y022408D01*
X035384Y022223D01*
X035014Y022223D01*
X035076Y022591D02*
X035014Y022653D01*
X035014Y022776D01*
X035076Y022838D01*
X035137Y022838D01*
X035384Y022591D01*
X035384Y022838D01*
X036014Y022776D02*
X036076Y022838D01*
X036137Y022838D01*
X036199Y022776D01*
X036261Y022838D01*
X036322Y022838D01*
X036384Y022776D01*
X036384Y022653D01*
X036322Y022591D01*
X036322Y022470D02*
X036076Y022470D01*
X036014Y022408D01*
X036014Y022223D01*
X036384Y022223D01*
X036384Y022408D01*
X036322Y022470D01*
X036199Y022715D02*
X036199Y022776D01*
X036014Y022776D02*
X036014Y022653D01*
X036076Y022591D01*
X036076Y022102D02*
X036014Y022040D01*
X036014Y021916D01*
X036076Y021855D01*
X036137Y021855D01*
X036199Y021916D01*
X036199Y022040D01*
X036261Y022102D01*
X036322Y022102D01*
X036384Y022040D01*
X036384Y021916D01*
X036322Y021855D01*
X037014Y021916D02*
X037076Y021855D01*
X037322Y021855D01*
X037384Y021916D01*
X037384Y022040D01*
X037322Y022102D01*
X037384Y022223D02*
X037014Y022223D01*
X037137Y022346D01*
X037014Y022470D01*
X037384Y022470D01*
X037384Y022591D02*
X037014Y022591D01*
X037014Y022776D01*
X037076Y022838D01*
X037322Y022838D01*
X037384Y022776D01*
X037384Y022591D01*
X037076Y022102D02*
X037014Y022040D01*
X037014Y021916D01*
X038014Y021855D02*
X038199Y021855D01*
X038137Y021978D01*
X038137Y022040D01*
X038199Y022102D01*
X038322Y022102D01*
X038384Y022040D01*
X038384Y021916D01*
X038322Y021855D01*
X038014Y021855D02*
X038014Y022102D01*
X038014Y022223D02*
X038261Y022223D01*
X038384Y022346D01*
X038261Y022470D01*
X038014Y022470D01*
X034199Y023022D02*
X034137Y023084D01*
X034076Y023084D01*
X033384Y022776D02*
X033322Y022838D01*
X033076Y022838D01*
X033014Y022776D01*
X033014Y022591D01*
X033384Y022591D01*
X033384Y022776D01*
X033384Y022470D02*
X033014Y022470D01*
X033014Y022223D02*
X033384Y022470D01*
X033384Y022223D02*
X033014Y022223D01*
X033076Y022102D02*
X033014Y022040D01*
X033014Y021916D01*
X033076Y021855D01*
X033322Y021855D01*
X033384Y021916D01*
X033384Y022040D01*
X033322Y022102D01*
X033199Y022102D01*
X033199Y021978D01*
X032384Y021978D02*
X032384Y021855D01*
X032384Y021916D02*
X032014Y021916D01*
X032014Y021855D02*
X032014Y021978D01*
X032076Y022100D02*
X032014Y022162D01*
X032014Y022285D01*
X032076Y022347D01*
X032322Y022347D01*
X032384Y022285D01*
X032384Y022162D01*
X032322Y022100D01*
X032076Y022100D01*
X032137Y022468D02*
X032014Y022592D01*
X032384Y022592D01*
X032384Y022715D02*
X032384Y022468D01*
X032384Y022837D02*
X032137Y023084D01*
X032076Y023084D01*
X032014Y023022D01*
X032014Y022899D01*
X032076Y022837D01*
X032384Y022837D02*
X032384Y023084D01*
X031384Y023022D02*
X031014Y023022D01*
X031199Y022837D01*
X031199Y023084D01*
X031384Y022715D02*
X031384Y022468D01*
X031384Y022592D02*
X031014Y022592D01*
X031137Y022468D01*
X031076Y022347D02*
X031014Y022285D01*
X031014Y022162D01*
X031076Y022100D01*
X031322Y022100D01*
X031384Y022162D01*
X031384Y022285D01*
X031322Y022347D01*
X031076Y022347D01*
X031014Y021978D02*
X031014Y021855D01*
X031014Y021916D02*
X031384Y021916D01*
X031384Y021855D02*
X031384Y021978D01*
X030384Y021978D02*
X030384Y021855D01*
X030384Y021916D02*
X030014Y021916D01*
X030014Y021855D02*
X030014Y021978D01*
X030076Y022100D02*
X030014Y022162D01*
X030014Y022285D01*
X030076Y022347D01*
X030322Y022347D01*
X030384Y022285D01*
X030384Y022162D01*
X030322Y022100D01*
X030076Y022100D01*
X030076Y022468D02*
X030014Y022530D01*
X030014Y022654D01*
X030076Y022715D01*
X030137Y022715D01*
X030384Y022468D01*
X030384Y022715D01*
X030384Y022837D02*
X030322Y022837D01*
X030076Y023084D01*
X030014Y023084D01*
X030014Y022837D01*
X029384Y022899D02*
X029384Y023022D01*
X029322Y023084D01*
X029261Y023084D01*
X029199Y023022D01*
X029199Y022837D01*
X029322Y022837D01*
X029384Y022899D01*
X029384Y022715D02*
X029384Y022468D01*
X029137Y022715D01*
X029076Y022715D01*
X029014Y022654D01*
X029014Y022530D01*
X029076Y022468D01*
X029076Y022347D02*
X029014Y022285D01*
X029014Y022162D01*
X029076Y022100D01*
X029322Y022100D01*
X029384Y022162D01*
X029384Y022285D01*
X029322Y022347D01*
X029076Y022347D01*
X029014Y021978D02*
X029014Y021855D01*
X029014Y021916D02*
X029384Y021916D01*
X029384Y021855D02*
X029384Y021978D01*
X029199Y022837D02*
X029076Y022960D01*
X029014Y023084D01*
X028384Y023022D02*
X028384Y022899D01*
X028322Y022837D01*
X028199Y022837D02*
X028137Y022960D01*
X028137Y023022D01*
X028199Y023084D01*
X028322Y023084D01*
X028384Y023022D01*
X028199Y022837D02*
X028014Y022837D01*
X028014Y023084D01*
X028076Y022715D02*
X028014Y022654D01*
X028014Y022530D01*
X028076Y022468D01*
X028076Y022347D02*
X028014Y022285D01*
X028014Y022162D01*
X028076Y022100D01*
X028322Y022100D01*
X028384Y022162D01*
X028384Y022285D01*
X028322Y022347D01*
X028076Y022347D01*
X028384Y022468D02*
X028137Y022715D01*
X028076Y022715D01*
X028384Y022715D02*
X028384Y022468D01*
X028384Y021978D02*
X028384Y021855D01*
X028384Y021916D02*
X028014Y021916D01*
X028014Y021855D02*
X028014Y021978D01*
X027384Y021978D02*
X027384Y021855D01*
X027384Y021916D02*
X027014Y021916D01*
X027014Y021855D02*
X027014Y021978D01*
X027076Y022100D02*
X027322Y022100D01*
X027384Y022162D01*
X027384Y022285D01*
X027322Y022347D01*
X027076Y022347D01*
X027014Y022285D01*
X027014Y022162D01*
X027076Y022100D01*
X027076Y022468D02*
X027014Y022530D01*
X027014Y022654D01*
X027076Y022715D01*
X027137Y022715D01*
X027199Y022654D01*
X027261Y022715D01*
X027322Y022715D01*
X027384Y022654D01*
X027384Y022530D01*
X027322Y022468D01*
X027199Y022592D02*
X027199Y022654D01*
X027076Y022837D02*
X027014Y022899D01*
X027014Y023022D01*
X027076Y023084D01*
X027137Y023084D01*
X027199Y023022D01*
X027261Y023084D01*
X027322Y023084D01*
X027384Y023022D01*
X027384Y022899D01*
X027322Y022837D01*
X027199Y022960D02*
X027199Y023022D01*
X026384Y023084D02*
X026384Y022837D01*
X026137Y023084D01*
X026076Y023084D01*
X026014Y023022D01*
X026014Y022899D01*
X026076Y022837D01*
X026076Y022715D02*
X026137Y022715D01*
X026199Y022654D01*
X026261Y022715D01*
X026322Y022715D01*
X026384Y022654D01*
X026384Y022530D01*
X026322Y022468D01*
X026322Y022347D02*
X026076Y022347D01*
X026014Y022285D01*
X026014Y022162D01*
X026076Y022100D01*
X026322Y022100D01*
X026384Y022162D01*
X026384Y022285D01*
X026322Y022347D01*
X026199Y022592D02*
X026199Y022654D01*
X026076Y022715D02*
X026014Y022654D01*
X026014Y022530D01*
X026076Y022468D01*
X026014Y021978D02*
X026014Y021855D01*
X026014Y021916D02*
X026384Y021916D01*
X026384Y021855D02*
X026384Y021978D01*
X025384Y021978D02*
X025384Y021855D01*
X025384Y021916D02*
X025014Y021916D01*
X025014Y021855D02*
X025014Y021978D01*
X025076Y022100D02*
X025322Y022100D01*
X025384Y022162D01*
X025384Y022285D01*
X025322Y022347D01*
X025076Y022347D01*
X025014Y022285D01*
X025014Y022162D01*
X025076Y022100D01*
X025076Y022468D02*
X025014Y022530D01*
X025014Y022654D01*
X025076Y022715D01*
X025137Y022715D01*
X025199Y022654D01*
X025261Y022715D01*
X025322Y022715D01*
X025384Y022654D01*
X025384Y022530D01*
X025322Y022468D01*
X025199Y022592D02*
X025199Y022654D01*
X025199Y022837D02*
X025137Y022960D01*
X025137Y023022D01*
X025199Y023084D01*
X025322Y023084D01*
X025384Y023022D01*
X025384Y022899D01*
X025322Y022837D01*
X025199Y022837D02*
X025014Y022837D01*
X025014Y023084D01*
X024384Y023022D02*
X024014Y023022D01*
X024199Y022837D01*
X024199Y023084D01*
X024137Y022715D02*
X024199Y022654D01*
X024261Y022715D01*
X024322Y022715D01*
X024384Y022654D01*
X024384Y022530D01*
X024322Y022468D01*
X024322Y022347D02*
X024076Y022347D01*
X024014Y022285D01*
X024014Y022162D01*
X024076Y022100D01*
X024322Y022100D01*
X024384Y022162D01*
X024384Y022285D01*
X024322Y022347D01*
X024199Y022592D02*
X024199Y022654D01*
X024137Y022715D02*
X024076Y022715D01*
X024014Y022654D01*
X024014Y022530D01*
X024076Y022468D01*
X024014Y021978D02*
X024014Y021855D01*
X024014Y021916D02*
X024384Y021916D01*
X024384Y021855D02*
X024384Y021978D01*
X023384Y021916D02*
X023322Y021855D01*
X023384Y021916D02*
X023384Y022040D01*
X023322Y022102D01*
X023261Y022102D01*
X023199Y022040D01*
X023199Y021916D01*
X023137Y021855D01*
X023076Y021855D01*
X023014Y021916D01*
X023014Y022040D01*
X023076Y022102D01*
X023014Y022223D02*
X023261Y022223D01*
X023384Y022346D01*
X023261Y022470D01*
X023014Y022470D01*
X023014Y022591D02*
X023384Y022838D01*
X023014Y022838D01*
X023014Y022591D02*
X023384Y022591D01*
X022384Y022591D02*
X022014Y022591D01*
X022014Y022776D01*
X022076Y022838D01*
X022199Y022838D01*
X022261Y022776D01*
X022261Y022591D01*
X022261Y022470D02*
X022014Y022470D01*
X022261Y022470D02*
X022384Y022346D01*
X022261Y022223D01*
X022014Y022223D01*
X022076Y022102D02*
X022014Y022040D01*
X022014Y021916D01*
X022076Y021855D01*
X022137Y021855D01*
X022199Y021916D01*
X022199Y022040D01*
X022261Y022102D01*
X022322Y022102D01*
X022384Y022040D01*
X022384Y021916D01*
X022322Y021855D01*
X021384Y021855D02*
X021384Y022102D01*
X021384Y022223D02*
X021014Y022223D01*
X021384Y022470D01*
X021014Y022470D01*
X021014Y022102D02*
X021014Y021855D01*
X021384Y021855D01*
X021199Y021855D02*
X021199Y021978D01*
X020384Y021916D02*
X020322Y021855D01*
X020384Y021916D02*
X020384Y022040D01*
X020322Y022102D01*
X020261Y022102D01*
X020199Y022040D01*
X020199Y021978D01*
X020199Y022040D02*
X020137Y022102D01*
X020076Y022102D01*
X020014Y022040D01*
X020014Y021916D01*
X020076Y021855D01*
X020014Y022223D02*
X020261Y022223D01*
X020384Y022346D01*
X020261Y022470D01*
X020014Y022470D01*
X020076Y022591D02*
X020014Y022653D01*
X020014Y022776D01*
X020076Y022838D01*
X020137Y022838D01*
X020199Y022776D01*
X020261Y022838D01*
X020322Y022838D01*
X020384Y022776D01*
X020384Y022653D01*
X020322Y022591D01*
X020199Y022715D02*
X020199Y022776D01*
X023022Y028162D02*
X023022Y028409D01*
D17*
X018845Y038394D02*
X018845Y038604D01*
X018845Y038499D02*
X018215Y038499D01*
X018215Y038394D02*
X018215Y038604D01*
X018320Y038824D02*
X018740Y038824D01*
X018845Y038929D01*
X018845Y039139D01*
X018740Y039244D01*
X018845Y039469D02*
X018845Y039889D01*
X018845Y039679D02*
X018215Y039679D01*
X018425Y039469D01*
X018320Y039244D02*
X018215Y039139D01*
X018215Y038929D01*
X018320Y038824D01*
X003407Y021035D02*
X003407Y020405D01*
X003197Y020405D02*
X003617Y020405D01*
X003197Y020825D02*
X003407Y021035D01*
X002973Y020930D02*
X002973Y020510D01*
X002868Y020405D01*
X002657Y020405D01*
X002552Y020510D01*
X002552Y020930D01*
X002657Y021035D01*
X002868Y021035D01*
X002973Y020930D01*
X002763Y020615D02*
X002973Y020405D01*
D18*
X002217Y021320D02*
X002217Y018070D01*
X005817Y018070D01*
X005817Y021320D01*
X002217Y021320D01*
D19*
X003017Y016595D03*
X004017Y016595D03*
X005017Y016595D03*
D20*
X005017Y017270D03*
X004017Y017270D03*
X003017Y017270D03*
M02*
