G75*
G70*
%OFA0B0*%
%FSLAX24Y24*%
%IPPOS*%
%LPD*%
%AMOC8*
5,1,8,0,0,1.08239X$1,22.5*
%
%ADD10C,0.1221*%
%ADD11R,0.1024X0.1024*%
%ADD12C,0.0555*%
%ADD13C,0.0800*%
%ADD14R,0.0634X0.0634*%
%ADD15C,0.0634*%
%ADD16C,0.1418*%
%ADD17C,0.0740*%
%ADD18R,0.0560X0.0560*%
%ADD19C,0.0560*%
%ADD20C,0.0700*%
%ADD21C,0.1340*%
%ADD22OC8,0.0560*%
D10*
X007580Y017285D03*
X010368Y017758D03*
X016368Y029458D03*
X017423Y035395D03*
X014846Y035695D03*
X014846Y042795D03*
X003046Y042795D03*
X003046Y035695D03*
X036517Y041300D03*
X036714Y016497D03*
D11*
X016768Y015658D03*
X009968Y015658D03*
X009968Y031258D03*
X016768Y031258D03*
D12*
X003466Y010109D02*
X003466Y009594D01*
X005435Y009594D02*
X005435Y010109D01*
X008490Y009424D02*
X008490Y008909D01*
X009490Y008909D02*
X009490Y009424D01*
X011958Y009322D02*
X011958Y008807D01*
X013958Y008807D02*
X013958Y009322D01*
X015958Y009322D02*
X015958Y008807D01*
X017958Y008807D02*
X017958Y009322D01*
X020746Y009424D02*
X020746Y008909D01*
X021746Y008909D02*
X021746Y009424D01*
X026368Y009322D02*
X026368Y008807D01*
X027368Y008807D02*
X027368Y009322D01*
X030490Y009322D02*
X030490Y008807D01*
X032490Y008807D02*
X032490Y009322D01*
X034490Y009322D02*
X034490Y008807D01*
X036490Y008807D02*
X036490Y009322D01*
D13*
X036139Y021084D03*
X037139Y021084D03*
X038139Y021084D03*
X035139Y021084D03*
X034139Y021084D03*
X033139Y021084D03*
X032139Y021084D03*
X031139Y021084D03*
X030139Y021084D03*
X029139Y021084D03*
X028139Y021084D03*
X027139Y021084D03*
X026139Y021084D03*
X025139Y021084D03*
X024139Y021084D03*
X023139Y021084D03*
X022139Y021084D03*
X021139Y021084D03*
X020139Y021084D03*
X020139Y030001D03*
X021139Y030001D03*
X022139Y030001D03*
X023139Y030001D03*
X024139Y030001D03*
X025139Y030001D03*
X026139Y030001D03*
X027139Y030001D03*
X028139Y030001D03*
X029139Y030001D03*
X030139Y030001D03*
X031139Y030001D03*
X032139Y030001D03*
X033139Y030001D03*
X034139Y030001D03*
X035139Y030001D03*
X036139Y030001D03*
X037139Y030001D03*
X038139Y030001D03*
D14*
X015196Y037245D03*
D15*
X015196Y038245D03*
X015196Y039245D03*
X015196Y040245D03*
X015196Y041245D03*
D16*
X003296Y040245D03*
D17*
X003170Y033155D02*
X002470Y033155D01*
X002470Y032155D02*
X003170Y032155D01*
X003170Y031155D02*
X002470Y031155D01*
X002470Y030155D02*
X003170Y030155D01*
X003170Y029155D02*
X002470Y029155D01*
X002470Y028155D02*
X003170Y028155D01*
X003170Y027155D02*
X002470Y027155D01*
X002470Y026155D02*
X003170Y026155D01*
D18*
X019450Y037859D03*
D19*
X020450Y037599D02*
X020450Y038119D01*
X021450Y038119D02*
X021450Y037599D01*
X022450Y037599D02*
X022450Y038119D01*
X022450Y040599D02*
X022450Y041119D01*
X021450Y041119D02*
X021450Y040599D01*
X020450Y040599D02*
X020450Y041119D01*
X019450Y041119D02*
X019450Y040599D01*
D20*
X005017Y016150D02*
X005017Y015490D01*
X004017Y015490D02*
X004017Y016150D01*
X003017Y016150D02*
X003017Y015490D01*
D21*
X004017Y022720D03*
D22*
X002734Y014135D03*
X005734Y014135D03*
X021317Y016001D03*
X023431Y015962D03*
X023431Y018962D03*
X021317Y019001D03*
M02*
