%
M48
M72
T01C0.0236
T02C0.0315
T03C0.0320
T04C0.0394
T05C0.0440
T06C0.0591
T07C0.1181
T08C0.1300
T09C0.1378
%
T01
X9746Y21025
T02
X3466Y9851
X5435Y9851
X8490Y9166
X9490Y9166
X11958Y9064
X13958Y9064
X15958Y9064
X17958Y9064
X20746Y9166
X21746Y9166
X26368Y9064
X27368Y9064
X30490Y9064
X32490Y9064
X34490Y9064
X36490Y9064
X2820Y26155
X2820Y27155
X2820Y28155
X2820Y29155
X2820Y30155
X2820Y31155
X2820Y32155
X2820Y33155
T03
X19450Y37859
X20450Y37859
X21450Y37859
X22450Y37859
X22450Y40859
X21450Y40859
X20450Y40859
X19450Y40859
X21317Y19001
X23431Y18962
X23431Y15962
X21317Y16001
X5734Y14135
X2734Y14135
T04
X20139Y21084
X21139Y21084
X22139Y21084
X23139Y21084
X24139Y21084
X25139Y21084
X26139Y21084
X27139Y21084
X28139Y21084
X29139Y21084
X30139Y21084
X31139Y21084
X32139Y21084
X33139Y21084
X34139Y21084
X35139Y21084
X36139Y21084
X37139Y21084
X38139Y21084
X38139Y30001
X37139Y30001
X36139Y30001
X35139Y30001
X34139Y30001
X33139Y30001
X32139Y30001
X31139Y30001
X30139Y30001
X29139Y30001
X28139Y30001
X27139Y30001
X26139Y30001
X25139Y30001
X24139Y30001
X23139Y30001
X22139Y30001
X21139Y30001
X20139Y30001
X15196Y37245
X15196Y38245
X15196Y39245
X15196Y40245
X15196Y41245
T05
X5017Y15820
X4017Y15820
X3017Y15820
T06
X9968Y15658
X16768Y15658
X16768Y31258
X9968Y31258
T07
X14846Y35695
X17423Y35395
X16368Y29458
X10368Y17758
X7580Y17285
X3046Y35695
X3046Y42795
X14846Y42795
X36517Y41300
X36714Y16497
T08
X4017Y22720
T09
X3296Y40245
M30
